<?xml version="1.0" encoding="UTF-8" standalone="no"?>
<svg
   inkscape:export-ydpi="96"
   inkscape:export-xdpi="96"
   inkscape:export-filename="blender_icons.png"
   style="display:inline;enable-background:new"
   inkscape:output_extension="org.inkscape.output.svg.inkscape"
   sodipodi:docname="drawPath.svg"
   version="1.0"
   inkscape:version="1.1.2 (0a00cf5339, 2022-02-04)"
   sodipodi:version="0.32"
   id="svg2"
   height="18"
   width="18"
   xmlns:inkscape="http://www.inkscape.org/namespaces/inkscape"
   xmlns:sodipodi="http://sodipodi.sourceforge.net/DTD/sodipodi-0.dtd"
   xmlns="http://www.w3.org/2000/svg"
   xmlns:svg="http://www.w3.org/2000/svg"
   xmlns:rdf="http://www.w3.org/1999/02/22-rdf-syntax-ns#"
   xmlns:cc="http://creativecommons.org/ns#"
   xmlns:dc="http://purl.org/dc/elements/1.1/">
  <metadata
     id="metadata34337">
    <rdf:RDF>
      <cc:Work
         rdf:about="">
        <dc:format>image/svg+xml</dc:format>
        <dc:type
           rdf:resource="http://purl.org/dc/dcmitype/StillImage" />
      </cc:Work>
    </rdf:RDF>
  </metadata>
  <sodipodi:namedview
     inkscape:pagecheckerboard="true"
     inkscape:document-rotation="0"
     pagecolor="#808080"
     bordercolor="#666666"
     borderopacity="1"
     objecttolerance="10"
     gridtolerance="10"
     guidetolerance="10"
     inkscape:pageopacity="0"
     inkscape:pageshadow="2"
     inkscape:window-width="1920"
     inkscape:window-height="1026"
     id="namedview34335"
     showgrid="false"
     inkscape:zoom="24.480359"
     inkscape:cx="-5.3103796"
     inkscape:cy="13.521044"
     inkscape:window-x="0"
     inkscape:window-y="0"
     inkscape:window-maximized="1"
     inkscape:current-layer="layer8"
     inkscape:showpageshadow="2"
     inkscape:deskcolor="#808080"
     showguides="true"
     inkscape:guide-bbox="true">
    <sodipodi:guide
       position="1.8449276,15.504422"
       orientation="0,-1"
       id="guide962" />
    <sodipodi:guide
       position="1.9622021,13.315588"
       orientation="1,0"
       id="guide964" />
    <sodipodi:guide
       position="16.00162,10.676288"
       orientation="1,0"
       id="guide966" />
    <sodipodi:guide
       position="10.695383,2.5234767"
       orientation="0,-1"
       id="guide968" />
  </sodipodi:namedview>
  <defs
     id="defs4" />
  <g
     inkscape:groupmode="layer"
     id="layer8"
     inkscape:label="icons"
     style="display:inline"
     transform="translate(-90,-537)">
    <path
       id="path862"
       style="color:#000000;font-style:normal;font-variant:normal;font-weight:normal;font-stretch:normal;font-size:medium;line-height:normal;font-family:sans-serif;font-variant-ligatures:normal;font-variant-position:normal;font-variant-caps:normal;font-variant-numeric:normal;font-variant-alternates:normal;font-variant-east-asian:normal;font-feature-settings:normal;font-variation-settings:normal;text-indent:0;text-align:start;text-decoration:none;text-decoration-line:none;text-decoration-style:solid;text-decoration-color:#000000;letter-spacing:normal;word-spacing:normal;text-transform:none;writing-mode:lr-tb;direction:ltr;text-orientation:mixed;dominant-baseline:auto;baseline-shift:baseline;text-anchor:start;white-space:normal;shape-padding:0;shape-margin:0;inline-size:0;clip-rule:nonzero;display:inline;overflow:visible;visibility:visible;isolation:auto;mix-blend-mode:normal;color-interpolation:sRGB;color-interpolation-filters:linearRGB;solid-color:#000000;solid-opacity:1;vector-effect:none;fill:#fffffd;fill-opacity:1;fill-rule:nonzero;stroke:none;stroke-width:2.63708;stroke-linecap:round;stroke-linejoin:round;stroke-miterlimit:4;stroke-dasharray:none;stroke-dashoffset:0;stroke-opacity:1;paint-order:stroke markers fill;color-rendering:auto;image-rendering:auto;shape-rendering:auto;text-rendering:auto;enable-background:accumulate;stop-color:#000000"
       d="m 103.62927,547.50794 a 0.34886315,0.34886315 0 0 0 -0.22838,0.4358 c 0,0 0.19558,0.68129 0.12708,1.31055 -0.0343,0.31463 -0.12844,0.59891 -0.31216,0.79487 -0.18373,0.19593 -0.46307,0.34026 -0.99129,0.33913 -0.59786,-10e-4 -0.98857,-0.006 -1.24814,0.003 -0.1298,0.006 -0.22637,0.008 -0.32302,0.029 -0.0482,0.0105 -0.0974,0.0264 -0.15985,0.0599 -0.0627,0.0335 -0.14812,0.10047 -0.18942,0.20622 -0.0413,0.10574 -0.026,0.21123 -0.006,0.27373 0.0204,0.0625 0.0472,0.0994 0.0677,0.13106 0.0411,0.0633 0.0756,0.10469 0.11059,0.15137 0.0699,0.0936 0.13144,0.19593 0.16289,0.32399 0.0225,0.0918 0.009,0.0928 -0.0285,0.13054 -0.0378,0.0379 -0.12938,0.0849 -0.24653,0.0944 -0.23466,0.0185 -0.482185,-0.0678 -0.566261,-0.37436 -0.08979,-0.32753 -0.315645,-0.57897 -0.580523,-0.70146 -0.264886,-0.12236 -0.558573,-0.13344 -0.829793,-0.0677 -0.542434,0.13107 -1.053875,0.64092 -0.983293,1.32978 a 0.34886315,0.34886315 0 0 0 0.383798,0.31194 0.34886315,0.34886315 0 0 0 0.311912,-0.3838 c -0.03398,-0.33188 0.177942,-0.51038 0.451625,-0.5766 0.13718,-0.0319 0.277689,-0.0237 0.374003,0.0211 0.09631,0.0446 0.161566,0.10443 0.201329,0.24946 0.175095,0.63857 0.780317,0.92617 1.287823,0.88794 0.25377,-0.0185 0.50017,-0.10601 0.68858,-0.29422 0.18848,-0.18803 0.28889,-0.49846 0.21594,-0.79537 -0.035,-0.14214 -0.0972,-0.21018 -0.15386,-0.31044 0.23563,-0.006 0.53739,-0.006 1.0557,-0.006 0.66887,10e-4 1.17852,-0.21255 1.50278,-0.5584 0.32427,-0.34596 0.45172,-0.78812 0.49625,-1.19726 0.0891,-0.81826 -0.15402,-1.5861 -0.15402,-1.5861 a 0.34886315,0.34886315 0 0 0 -0.43714,-0.23338 z m 0.64389,-7.14327 c -0.61549,-0.59572 -1.36753,-1.05027 -1.63813,-0.77195 l -1.02007,1.04911 c 0.5372,0.27452 1.00758,0.61604 1.40558,1.02477 0.40057,0.41135 0.73143,0.886 1.01708,1.3986 l 1.05395,-1.084 c 0.27603,-0.28388 -0.20292,-1.02079 -0.81841,-1.61653 z m -1.62982,1.68082 c -0.39709,-0.4089 -0.86653,-0.74368 -1.4202,-1.00067 l -6.652176,6.84164 -0.993808,2.4407 c 0.112187,-0.0385 0.231108,-0.0678 0.367604,-0.0522 0.200262,0.0237 0.41355,0.1846 0.492163,0.41073 0.09282,0.26706 0.05868,0.51666 0.03133,0.73925 l 2.55927,-1.14995 6.619037,-6.80754 c -0.28036,-0.53314 -0.60668,-1.01351 -1.00321,-1.42183 z m -8.460222,9.50744 c 0.0233,-0.26896 0.0754,-0.55593 -0.0021,-0.7785 -0.05275,-0.15189 -0.150067,-0.21782 -0.266504,-0.23074 -0.116151,-0.0105 -0.252068,0.0269 -0.380603,0.0852 -0.05756,0.0264 -0.05624,0.0388 -0.108867,0.0693 l -0.596586,1.46382 z" />
  </g>
</svg>
