<?xml version="1.0" encoding="UTF-8" standalone="no"?>
<svg
   width="25"
   height="25"
   viewBox="0 0 6.6145832 6.6145835"
   version="1.1"
   id="svg1468"
   inkscape:version="1.1.2 (0a00cf5339, 2022-02-04)"
   sodipodi:docname="nullCreate.svg"
   xmlns:inkscape="http://www.inkscape.org/namespaces/inkscape"
   xmlns:sodipodi="http://sodipodi.sourceforge.net/DTD/sodipodi-0.dtd"
   xmlns="http://www.w3.org/2000/svg"
   xmlns:svg="http://www.w3.org/2000/svg"
   xmlns:rdf="http://www.w3.org/1999/02/22-rdf-syntax-ns#"
   xmlns:cc="http://creativecommons.org/ns#"
   xmlns:dc="http://purl.org/dc/elements/1.1/">
  <defs
     id="defs1462" />
  <sodipodi:namedview
     id="base"
     pagecolor="#ffffff"
     bordercolor="#666666"
     borderopacity="1.0"
     inkscape:pageopacity="0.0"
     inkscape:pageshadow="2"
     inkscape:zoom="31.678384"
     inkscape:cx="10.890707"
     inkscape:cy="10.354064"
     inkscape:document-units="mm"
     inkscape:current-layer="layer1"
     showgrid="false"
     units="px"
     inkscape:window-width="1920"
     inkscape:window-height="1013"
     inkscape:window-x="0"
     inkscape:window-y="0"
     inkscape:window-maximized="1"
     inkscape:document-rotation="0"
     inkscape:pagecheckerboard="1" />
  <metadata
     id="metadata1465">
    <rdf:RDF>
      <cc:Work
         rdf:about="">
        <dc:format>image/svg+xml</dc:format>
        <dc:type
           rdf:resource="http://purl.org/dc/dcmitype/StillImage" />
        <dc:title />
      </cc:Work>
    </rdf:RDF>
  </metadata>
  <g
     inkscape:label="Layer 1"
     inkscape:groupmode="layer"
     id="layer1"
     transform="translate(0,-290.3854)">
    <path
       id="path4906"
       style="opacity:1;fill:#ffffff;fill-opacity:1;fill-rule:evenodd;stroke:none;stroke-width:0.372986;stroke-linecap:round;stroke-linejoin:round;stroke-miterlimit:4;stroke-dasharray:none;stroke-dashoffset:9.4;stroke-opacity:1"
       d="m 3.3072917,291.45459 a 2.2379143,2.2379143 0 0 0 -2.2381062,2.2381 2.2379143,2.2379143 0 0 0 2.2381062,2.23811 2.2379143,2.2379143 0 0 0 2.2381062,-2.23811 2.2379143,2.2379143 0 0 0 -2.2381062,-2.2381 z m -0.027905,0.45578 a 1.7824545,1.7824545 0 0 1 0.027905,0 1.7824545,1.7824545 0 0 1 1.7823201,1.78232 1.7824545,1.7824545 0 0 1 -1.7823201,1.78232 1.7824545,1.7824545 0 0 1 -1.7823201,-1.78232 1.7824545,1.7824545 0 0 1 1.7544151,-1.78232 z" />
    <path
       inkscape:connector-curvature="0"
       id="path818"
       d="m 1.787365,292.27266 2.9441409,2.94414"
       style="fill:#f9f9f9;fill-opacity:1;stroke:#f9f9f9;stroke-width:0.529167;stroke-linecap:butt;stroke-linejoin:miter;stroke-miterlimit:4;stroke-dasharray:none;stroke-opacity:1" />
    <path
       style="fill:#ffffff;fill-opacity:1;stroke:#f9f9f9;stroke-width:0.529167;stroke-linecap:butt;stroke-linejoin:miter;stroke-miterlimit:4;stroke-dasharray:none;stroke-opacity:1"
       d="m 4.7315054,292.27266 -2.94414,2.94414"
       id="path816"
       inkscape:connector-curvature="0" />
  </g>
</svg>
