<?xml version="1.0" encoding="UTF-8" standalone="no"?>
<svg
   inkscape:export-ydpi="96"
   inkscape:export-xdpi="96"
   inkscape:export-filename="blender_icons.png"
   style="display:inline;enable-background:new"
   inkscape:output_extension="org.inkscape.output.svg.inkscape"
   sodipodi:docname="pathCreate.svg"
   version="1.0"
   inkscape:version="1.1.2 (0a00cf5339, 2022-02-04)"
   sodipodi:version="0.32"
   id="svg2"
   height="18"
   width="18"
   xmlns:inkscape="http://www.inkscape.org/namespaces/inkscape"
   xmlns:sodipodi="http://sodipodi.sourceforge.net/DTD/sodipodi-0.dtd"
   xmlns="http://www.w3.org/2000/svg"
   xmlns:svg="http://www.w3.org/2000/svg"
   xmlns:rdf="http://www.w3.org/1999/02/22-rdf-syntax-ns#"
   xmlns:cc="http://creativecommons.org/ns#"
   xmlns:dc="http://purl.org/dc/elements/1.1/">
  <metadata
     id="metadata34337">
    <rdf:RDF>
      <cc:Work
         rdf:about="">
        <dc:format>image/svg+xml</dc:format>
        <dc:type
           rdf:resource="http://purl.org/dc/dcmitype/StillImage" />
      </cc:Work>
    </rdf:RDF>
  </metadata>
  <sodipodi:namedview
     inkscape:pagecheckerboard="true"
     inkscape:document-rotation="0"
     pagecolor="#808080"
     bordercolor="#666666"
     borderopacity="1"
     objecttolerance="10"
     gridtolerance="10"
     guidetolerance="10"
     inkscape:pageopacity="0"
     inkscape:pageshadow="2"
     inkscape:window-width="1920"
     inkscape:window-height="1026"
     id="namedview34335"
     showgrid="false"
     inkscape:zoom="24.480359"
     inkscape:cx="-5.3103796"
     inkscape:cy="13.521044"
     inkscape:window-x="0"
     inkscape:window-y="0"
     inkscape:window-maximized="1"
     inkscape:current-layer="layer8"
     inkscape:showpageshadow="2"
     inkscape:deskcolor="#808080"
     showguides="true"
     inkscape:guide-bbox="true">
    <sodipodi:guide
       position="1.8449276,15.504422"
       orientation="0,-1"
       id="guide962" />
    <sodipodi:guide
       position="1.9622021,13.315588"
       orientation="1,0"
       id="guide964" />
    <sodipodi:guide
       position="16.00162,10.676288"
       orientation="1,0"
       id="guide966" />
    <sodipodi:guide
       position="10.695383,2.5234767"
       orientation="0,-1"
       id="guide968" />
  </sodipodi:namedview>
  <defs
     id="defs4" />
  <g
     inkscape:groupmode="layer"
     id="layer8"
     inkscape:label="icons"
     style="display:inline"
     transform="translate(-90,-537)">
    <path
       id="path839"
       style="fill:#fffff1;fill-rule:evenodd;stroke-width:0.864451;fill-opacity:1"
       inkscape:transform-center-x="-0.19658658"
       inkscape:transform-center-y="0.07514527"
       d="m 99.905564,549.75572 5.577716,-3.23021 a 0.58285755,0.58285755 0 0 0 -0.002,-1.00982 l -5.18322,-2.9829 a 0.58285755,0.58285755 0 0 0 -0.873816,0.50605 l 0.0094,6.4457 1.456926,-2.53161 a 0.60275697,0.60275697 0 0 1 -0.019,-0.6304 0.60275697,0.60275697 0 0 1 0.82306,-0.22169 0.60275697,0.60275697 0 0 1 0.22177,0.82309 0.60275697,0.60275697 0 0 1 -0.55547,0.3019 z m -6.378696,-9.3424 a 1.3009077,1.3009077 0 0 0 -1.300824,1.30084 1.3009077,1.3009077 0 0 0 1.300824,1.30083 1.3009077,1.3009077 0 0 0 0.585365,-0.13903 c 0.797259,0.98356 1.267803,2.08423 1.324476,3.15746 0.05797,1.09781 -0.301754,2.18025 -1.219524,3.15008 a 1.3009077,1.3009077 0 0 0 -0.690317,-0.19823 1.3009077,1.3009077 0 0 0 -1.300824,1.30081 1.3009077,1.3009077 0 0 0 1.300824,1.30085 1.3009077,1.3009077 0 0 0 1.243168,-0.9224 h 4.274983 c 0.21016,7.5e-4 0.380722,-0.16963 0.379897,-0.37991 7.57e-4,-0.21024 -0.169737,-0.38073 -0.379897,-0.3799 h -4.274983 a 1.3009077,1.3009077 0 0 0 -0.05472,-0.14932 c 1.108359,-1.13202 1.545708,-2.42788 1.475254,-3.76205 -0.06993,-1.32428 -0.572832,-2.54817 -1.519605,-3.66154 a 1.3009077,1.3009077 0 0 0 0.09904,-0.238 h 4.23655 c 0.21016,7.6e-4 0.380722,-0.16962 0.379897,-0.37991 7.57e-4,-0.21024 -0.169737,-0.38073 -0.379897,-0.37989 h -4.235067 a 1.3009077,1.3009077 0 0 0 -1.244651,-0.92094 z" />
  </g>
</svg>
