<?xml version="1.0" encoding="UTF-8" standalone="no"?>
<svg
   inkscape:export-ydpi="96"
   inkscape:export-xdpi="96"
   inkscape:export-filename="blender_icons.png"
   style="display:inline;enable-background:new"
   inkscape:output_extension="org.inkscape.output.svg.inkscape"
   sodipodi:docname="pivotLocal.svg"
   version="1.0"
   inkscape:version="1.1.2 (0a00cf5339, 2022-02-04)"
   sodipodi:version="0.32"
   id="svg2"
   height="18"
   width="18"
   xmlns:inkscape="http://www.inkscape.org/namespaces/inkscape"
   xmlns:sodipodi="http://sodipodi.sourceforge.net/DTD/sodipodi-0.dtd"
   xmlns="http://www.w3.org/2000/svg"
   xmlns:svg="http://www.w3.org/2000/svg"
   xmlns:rdf="http://www.w3.org/1999/02/22-rdf-syntax-ns#"
   xmlns:cc="http://creativecommons.org/ns#"
   xmlns:dc="http://purl.org/dc/elements/1.1/">
  <metadata
     id="metadata34337">
    <rdf:RDF>
      <cc:Work
         rdf:about="">
        <dc:format>image/svg+xml</dc:format>
        <dc:type
           rdf:resource="http://purl.org/dc/dcmitype/StillImage" />
      </cc:Work>
    </rdf:RDF>
  </metadata>
  <sodipodi:namedview
     inkscape:pagecheckerboard="true"
     inkscape:document-rotation="0"
     pagecolor="#808080"
     bordercolor="#666666"
     borderopacity="1"
     objecttolerance="10"
     gridtolerance="10"
     guidetolerance="10"
     inkscape:pageopacity="0"
     inkscape:pageshadow="2"
     inkscape:window-width="1920"
     inkscape:window-height="1026"
     id="namedview34335"
     showgrid="false"
     inkscape:zoom="24.480359"
     inkscape:cx="-5.3103796"
     inkscape:cy="13.521044"
     inkscape:window-x="0"
     inkscape:window-y="0"
     inkscape:window-maximized="1"
     inkscape:current-layer="layer8"
     inkscape:showpageshadow="2"
     inkscape:deskcolor="#808080"
     showguides="true"
     inkscape:guide-bbox="true">
    <sodipodi:guide
       position="1.8449276,15.504422"
       orientation="0,-1"
       id="guide962" />
    <sodipodi:guide
       position="1.9622021,13.315588"
       orientation="1,0"
       id="guide964" />
    <sodipodi:guide
       position="16.00162,10.676288"
       orientation="1,0"
       id="guide966" />
    <sodipodi:guide
       position="10.695383,2.5234767"
       orientation="0,-1"
       id="guide968" />
  </sodipodi:namedview>
  <defs
     id="defs4" />
  <g
     inkscape:groupmode="layer"
     id="layer8"
     inkscape:label="icons"
     style="display:inline"
     transform="translate(-90,-537)">
    <g
       id="g3787"
       transform="matrix(2.526004,0,0,2.526004,90.64357,-195.86617)"
       style="fill:#fffff8;fill-opacity:1">
      <path
         id="path842-3"
         style="fill:#fffff8;fill-opacity:1;fill-rule:evenodd;stroke:none;stroke-width:0.264583;stroke-linecap:round;stroke-linejoin:round;stroke-miterlimit:4;stroke-dasharray:none;stroke-dashoffset:0;stroke-opacity:1"
         d="m 4.3813183,293.43728 a 1.418018,1.4150671 0 0 0 -0.9710001,0.41444 1.418018,1.4150671 0 0 0 0,2.00091 1.418018,1.4150671 0 0 0 2.0050456,0 1.418018,1.4150671 0 0 0 0,-2.00091 1.418018,1.4150671 0 0 0 -1.0340455,-0.41444 z m 0.037207,0.33589 a 1.081131,1.0788812 0 0 1 0.75861,0.31626 1.081131,1.0788812 0 0 1 0,1.52549 1.081131,1.0788812 0 0 1 -1.5285889,0 1.081131,1.0788812 0 0 1 0,-1.52549 1.081131,1.0788812 0 0 1 0.7699789,-0.31626 z" />
      <circle
         style="fill:#fffff8;fill-opacity:1;fill-rule:evenodd;stroke:none;stroke-width:0.264583;stroke-linecap:round;stroke-linejoin:round;stroke-miterlimit:4;stroke-dasharray:none;stroke-dashoffset:0;stroke-opacity:1"
         id="circle844"
         cx="211.61232"
         cy="205.37152"
         r="0.58465207"
         transform="rotate(45)" />
      <path
         id="circle4539"
         style="fill:#fffff8;fill-opacity:1;fill-rule:evenodd;stroke:none;stroke-width:0.999998;stroke-linecap:round;stroke-linejoin:round;stroke-miterlimit:4;stroke-dasharray:none;stroke-dashoffset:0;stroke-opacity:1"
         d="m 8.2089844,2.7636719 a 5.3594383,5.3482852 0 0 0 -3.6699219,1.5664062 5.3594383,5.3482852 0 0 0 0,7.5624999 5.3594383,5.3482852 0 0 0 7.5781255,0 5.3594383,5.3482852 0 0 0 0,-7.5624999 5.3594383,5.3482852 0 0 0 -3.9082036,-1.5664062 z m 0.140625,1.2695312 a 4.0861646,4.0776612 0 0 1 2.8671876,1.1953125 4.0861646,4.0776612 0 0 1 0,5.7656254 4.0861646,4.0776612 0 0 1 -5.7773439,0 4.0861646,4.0776612 0 0 1 0,-5.7656254 4.0861646,4.0776612 0 0 1 2.9101563,-1.1953125 z"
         transform="matrix(0.26458333,0,0,0.26458333,0,290.3854)" />
      <circle
         style="fill:#fffff8;fill-opacity:1;fill-rule:evenodd;stroke:none;stroke-width:0.264583;stroke-linecap:round;stroke-linejoin:round;stroke-miterlimit:4;stroke-dasharray:none;stroke-dashoffset:0;stroke-opacity:1"
         id="circle4543"
         cx="208.40912"
         cy="205.29283"
         r="0.58465207"
         transform="rotate(45)" />
    </g>
  </g>
</svg>
