<?xml version="1.0" encoding="UTF-8" standalone="no"?>
<svg
   inkscape:export-ydpi="96"
   inkscape:export-xdpi="96"
   inkscape:export-filename="blender_icons.png"
   style="display:inline;enable-background:new"
   inkscape:output_extension="org.inkscape.output.svg.inkscape"
   sodipodi:docname="pivotGlobal.svg"
   version="1.0"
   inkscape:version="1.1.2 (0a00cf5339, 2022-02-04)"
   sodipodi:version="0.32"
   id="svg2"
   height="18"
   width="18"
   xmlns:inkscape="http://www.inkscape.org/namespaces/inkscape"
   xmlns:sodipodi="http://sodipodi.sourceforge.net/DTD/sodipodi-0.dtd"
   xmlns="http://www.w3.org/2000/svg"
   xmlns:svg="http://www.w3.org/2000/svg"
   xmlns:rdf="http://www.w3.org/1999/02/22-rdf-syntax-ns#"
   xmlns:cc="http://creativecommons.org/ns#"
   xmlns:dc="http://purl.org/dc/elements/1.1/">
  <metadata
     id="metadata34337">
    <rdf:RDF>
      <cc:Work
         rdf:about="">
        <dc:format>image/svg+xml</dc:format>
        <dc:type
           rdf:resource="http://purl.org/dc/dcmitype/StillImage" />
      </cc:Work>
    </rdf:RDF>
  </metadata>
  <sodipodi:namedview
     inkscape:pagecheckerboard="true"
     inkscape:document-rotation="0"
     pagecolor="#808080"
     bordercolor="#666666"
     borderopacity="1"
     objecttolerance="10"
     gridtolerance="10"
     guidetolerance="10"
     inkscape:pageopacity="0"
     inkscape:pageshadow="2"
     inkscape:window-width="1920"
     inkscape:window-height="1026"
     id="namedview34335"
     showgrid="false"
     inkscape:zoom="24.480359"
     inkscape:cx="-5.3103796"
     inkscape:cy="13.521044"
     inkscape:window-x="0"
     inkscape:window-y="0"
     inkscape:window-maximized="1"
     inkscape:current-layer="layer8"
     inkscape:showpageshadow="2"
     inkscape:deskcolor="#808080"
     showguides="true"
     inkscape:guide-bbox="true">
    <sodipodi:guide
       position="1.8449276,15.504422"
       orientation="0,-1"
       id="guide962" />
    <sodipodi:guide
       position="1.9622021,13.315588"
       orientation="1,0"
       id="guide964" />
    <sodipodi:guide
       position="16.00162,10.676288"
       orientation="1,0"
       id="guide966" />
    <sodipodi:guide
       position="10.695383,2.5234767"
       orientation="0,-1"
       id="guide968" />
  </sodipodi:namedview>
  <defs
     id="defs4" />
  <g
     inkscape:groupmode="layer"
     id="layer8"
     inkscape:label="icons"
     style="display:inline"
     transform="translate(-90,-537)">
    <g
       id="g3526"
       transform="matrix(2.5259523,0,0,2.5259523,90.643979,-195.85112)"
       style="fill:#ffffff;fill-opacity:1">
      <path
         id="circle4577"
         style="fill:#ffffff;fill-opacity:1;fill-rule:evenodd;stroke:none;stroke-width:0.999998;stroke-linecap:round;stroke-linejoin:round;stroke-miterlimit:4;stroke-dasharray:none;stroke-dashoffset:0;stroke-opacity:1"
         transform="matrix(0.26458333,0,0,0.26458333,0,290.3854)"
         d="m 8.2089844,2.7636719 a 5.3594382,5.3482849 0 0 0 -3.6699219,1.5664062 5.3594382,5.3482849 0 0 0 0,7.5624999 5.3594382,5.3482849 0 0 0 4.7128906,1.484375 C 9.1289414,12.929538 9.0961798,12.467362 9.15625,12.009766 a 3.994834,3.9865205 0 0 1 -3.6523438,-1.080078 3.994834,3.9865205 0 0 1 0,-5.6367192 A 3.994834,3.9865205 0 0 1 8.3867188,4.125 3.994834,3.9865205 0 0 1 11.152344,5.2929688 3.994834,3.9865205 0 0 1 12.210938,9.0371094 c 0.459677,-0.047928 0.921769,-0.00308 1.367187,0.1328125 A 5.3594382,5.3482849 0 0 0 12.117188,4.3300781 5.3594382,5.3482849 0 0 0 8.2089844,2.7636719 Z m 8.3925776,8.7714841 a 5.3594381,5.3482851 0 0 0 -0.699218,0.05664 c 0.116272,0.447621 0.143998,0.909484 0.07813,1.365234 a 3.994834,3.9865206 0 0 1 3.521484,1.105469 3.994834,3.9865206 0 0 1 0,5.636719 3.994834,3.9865206 0 0 1 -2.882812,1.167969 3.994834,3.9865206 0 0 1 -2.765625,-1.167969 3.994834,3.9865206 0 0 1 -1.044922,-3.804688 c -0.459363,0.03169 -0.919285,-0.02676 -1.359375,-0.177734 a 5.3594381,5.3482851 0 0 0 1.439453,4.945312 5.3594381,5.3482851 0 0 0 3.908203,1.566407 5.3594381,5.3482851 0 0 0 3.669922,-1.566407 5.3594381,5.3482851 0 0 0 0,-7.5625 5.3594381,5.3482851 0 0 0 -3.865235,-1.564453 z" />
      <path
         style="color:#000000;font-style:normal;font-variant:normal;font-weight:normal;font-stretch:normal;font-size:medium;line-height:normal;font-family:sans-serif;font-variant-ligatures:normal;font-variant-position:normal;font-variant-caps:normal;font-variant-numeric:normal;font-variant-alternates:normal;font-variant-east-asian:normal;font-feature-settings:normal;font-variation-settings:normal;text-indent:0;text-align:start;text-decoration:none;text-decoration-line:none;text-decoration-style:solid;text-decoration-color:#000000;letter-spacing:normal;word-spacing:normal;text-transform:none;writing-mode:lr-tb;direction:ltr;text-orientation:mixed;dominant-baseline:auto;baseline-shift:baseline;text-anchor:start;white-space:normal;shape-padding:0;shape-margin:0;inline-size:0;clip-rule:nonzero;display:inline;overflow:visible;visibility:visible;isolation:auto;mix-blend-mode:normal;color-interpolation:sRGB;color-interpolation-filters:linearRGB;solid-color:#000000;solid-opacity:1;vector-effect:none;fill:#ffffff;fill-opacity:1;fill-rule:evenodd;stroke:none;stroke-width:0.264583;stroke-linecap:round;stroke-linejoin:round;stroke-miterlimit:4;stroke-dasharray:none;stroke-dashoffset:0;stroke-opacity:1;color-rendering:auto;image-rendering:auto;shape-rendering:auto;text-rendering:auto;enable-background:accumulate;stop-color:#000000"
         d="m 3.7392726,294.0956 c -0.2283177,0.22832 -0.5985023,0.22832 -0.826827,0 -0.2283178,-0.22832 -0.2283178,-0.59851 0,-0.82682 0.2283247,-0.22833 0.5985022,-0.22832 0.8268199,0 0.2283248,0.22832 0.2283319,0.5985 7.1e-6,0.82682 z"
         id="path842" />
    </g>
  </g>
</svg>
