<?xml version="1.0" encoding="UTF-8" standalone="no"?>
<svg
   width="25"
   height="25"
   viewBox="0 0 6.6145832 6.6145835"
   version="1.1"
   id="svg1468"
   inkscape:version="1.1.2 (0a00cf5339, 2022-02-04)"
   sodipodi:docname="easing.svg"
   xmlns:inkscape="http://www.inkscape.org/namespaces/inkscape"
   xmlns:sodipodi="http://sodipodi.sourceforge.net/DTD/sodipodi-0.dtd"
   xmlns="http://www.w3.org/2000/svg"
   xmlns:svg="http://www.w3.org/2000/svg"
   xmlns:rdf="http://www.w3.org/1999/02/22-rdf-syntax-ns#"
   xmlns:cc="http://creativecommons.org/ns#"
   xmlns:dc="http://purl.org/dc/elements/1.1/">
  <defs
     id="defs1462" />
  <sodipodi:namedview
     id="base"
     pagecolor="#ff47ff"
     bordercolor="#666666"
     borderopacity="1.0"
     inkscape:pageopacity="0"
     inkscape:pageshadow="2"
     inkscape:zoom="16.963943"
     inkscape:cx="9.991781"
     inkscape:cy="17.979311"
     inkscape:document-units="mm"
     inkscape:current-layer="layer1"
     showgrid="false"
     units="px"
     inkscape:window-width="1920"
     inkscape:window-height="1085"
     inkscape:window-x="0"
     inkscape:window-y="27"
     inkscape:window-maximized="1"
     inkscape:document-rotation="0"
     inkscape:pagecheckerboard="1" />
  <metadata
     id="metadata1465">
    <rdf:RDF>
      <cc:Work
         rdf:about="">
        <dc:format>image/svg+xml</dc:format>
        <dc:type
           rdf:resource="http://purl.org/dc/dcmitype/StillImage" />
      </cc:Work>
    </rdf:RDF>
  </metadata>
  <g
     inkscape:label="Layer 1"
     inkscape:groupmode="layer"
     id="layer1"
     transform="translate(0,-290.3854)">
    <g
       fill="#ffffff"
       id="g1106"
       transform="matrix(0.00385357,0,0,0.00385357,0.22444078,290.99519)">
      <path
         d="m 342.45117,201 a 0.50059574,0.50059574 0 0 0 0.0488,1 c 0.0215,2e-5 0.18225,-1.7e-4 0.33398,0 0.0105,0.42607 0.0502,2.52232 0.33594,5.05664 0.15671,1.39002 0.37504,2.78188 0.69727,3.86719 0.16111,0.54265 0.34457,1.00922 0.59179,1.38086 0.24723,0.37163 0.61429,0.69531 1.09375,0.69531 0.39174,0 0.74881,-0.20864 0.97657,-0.48047 0.22775,-0.27182 0.37091,-0.59987 0.48632,-0.96289 0.23084,-0.72603 0.34622,-1.61436 0.46876,-2.48828 0.12253,-0.87392 0.25275,-1.73314 0.44921,-2.31641 0.0982,-0.29163 0.21467,-0.50852 0.31446,-0.62109 C 348.34784,206.01829 348.39286,206 348.5,206 c 0.16824,0 0.2932,0.0848 0.48633,0.39062 0.19312,0.30582 0.37727,0.78401 0.5625,1.28321 0.18523,0.49919 0.37171,1.01992 0.64453,1.46289 0.27281,0.44297 0.71019,0.86328 1.30664,0.86328 0.41993,0 0.77613,-0.23568 0.99219,-0.49219 0.21606,-0.2565 0.34747,-0.53797 0.4707,-0.78906 0.12323,-0.25109 0.23849,-0.47074 0.33594,-0.58984 C 353.39628,208.0098 353.41651,208 353.5,208 c 0.0859,0 0.18647,0.0811 0.39844,0.32617 0.10598,0.12255 0.22449,0.26923 0.39453,0.40625 C 354.463,208.86945 354.71104,209 355,209 c 0.008,0 0.14542,-2.8e-4 0.27539,0 0.065,1.4e-4 0.13031,6e-5 0.18164,0 0.0513,-6e-5 0.0312,0.005 0.12109,0 a 0.50080138,0.50080138 0 1 0 -0.0566,-1 c 0.0748,-0.004 -0.0172,-5e-5 -0.0664,0 -0.0492,5e-5 -0.11331,1.4e-4 -0.17774,0 -0.12885,-2.8e-4 -0.25041,0 -0.27734,0 -0.0108,0 -0.0173,0.004 -0.0801,-0.0469 -0.0628,-0.0506 -0.15527,-0.15364 -0.26562,-0.28124 C 354.43358,207.41667 354.08387,207 353.5,207 c -0.4167,0 -0.76719,0.23824 -0.97656,0.49414 -0.20937,0.2559 -0.33683,0.53625 -0.45899,0.78516 -0.12215,0.24891 -0.23808,0.46744 -0.33789,0.58593 C 351.62675,208.98373 351.59835,209 351.5,209 c -0.14972,0 -0.26794,-0.0816 -0.45703,-0.38867 -0.18909,-0.30703 -0.37082,-0.78435 -0.55664,-1.28516 -0.18583,-0.5008 -0.37575,-1.02457 -0.65625,-1.46875 C 349.54958,205.41324 349.10136,205 348.5,205 c -0.39664,0 -0.76041,0.19848 -1,0.46875 -0.23959,0.27027 -0.39279,0.60017 -0.51562,0.96484 -0.24567,0.72934 -0.36739,1.61988 -0.49024,2.4961 -0.12285,0.87621 -0.24515,1.73764 -0.43164,2.32422 -0.0933,0.29328 -0.20581,0.51202 -0.29883,0.62304 -0.093,0.11102 -0.1237,0.12305 -0.21094,0.12305 -0.027,0 -0.10877,-0.0201 -0.26171,-0.25 -0.15295,-0.22991 -0.31979,-0.62276 -0.46485,-1.11133 -0.29011,-0.97714 -0.5088,-2.33541 -0.66211,-3.69531 -0.30662,-2.7198 -0.36328,-5.45313 -0.36328,-5.45313 a 0.50005,0.50005 0 0 0 -0.5,-0.49023 c -0.0468,0 -0.74734,5e-5 -0.80078,0 a 0.50005,0.50005 0 0 0 -0.0488,0 z"
         transform="matrix(100,0,0,100,-34101.376,-19999.97)"
         id="path1104" />
    </g>
  </g>
</svg>
