<?xml version="1.0" encoding="UTF-8" standalone="no"?>
<svg
   viewBox="0 0 20 20"
   xml:space="preserve"
   version="1.1"
   id="svg890"
   xmlns="http://www.w3.org/2000/svg"
   xmlns:svg="http://www.w3.org/2000/svg"><defs
   id="defs894" />
    
<g
   id="g1015"
   transform="matrix(0,-0.03356807,0.03356807,0,11.279107,2.56811)"
   style="fill:#ffffff;fill-opacity:1;stroke:none"><path
     id="path48999"
     stroke="#000000"
     stroke-width="7.5406"
     d="m -190.63497,-63.57804 c 40.11,-55.31 48.78,-95.731 62.36,-91.863 10.62,3.023 5.52,12.113 33.59,18.523 26.95,6.16 54.48,-15.96 60.2,-42.656 7.62,-26.163 -4.73,-59.047 -32.36,-67.165 -27.34,-9.8952 -59.93,6.188 -69.66,33.419 -14.09,31.13 -21.32,72.242 -66.88,107.53 l -34.96,27.09 -121.01,170.84 c -13.534,22.08 -21.658,51.47 -4.115,79.44 l 172.84,-235.16 z m 129.82,-103.12 c -23.31,23.251 -64.54,9.071 -64.47,-21.965 -1.65,-28.553 33.06,-54.558 58.85,-38.26 21.73,11.428 21.57,44.309 5.62,60.225 z"
     style="fill:#ffffff;fill-opacity:1;stroke:none" /><path
     id="path49000"
     stroke="#000000"
     stroke-width="7.5406"
     d="m -252.45497,-62.07804 c -39.99,-55.39 -48.57,-95.832 -62.161,-91.994 -10.627,3.004 -5.543,12.104 -33.624,18.454 -26.962,6.09 -54.445,-16.09 -60.106,-42.796 -7.5603,-26.18 4.862,-59.036 32.508,-67.093 27.363,-9.8338 59.916,6.322 69.583,33.575 14.03,31.161 21.16,72.294 66.64,107.68 l 34.91,27.16 120.62,171.11 c 13.49,22.12 21.54,51.52 3.94,79.45 l -172.31,-235.55 z m -129.59,-103.4 c 23.254,23.302 64.514,9.214 64.512,-21.821 1.714,-28.55 -32.933,-54.632 -58.766,-38.391 -21.747,11.379 -21.664,44.26 -5.746,60.212 z"
     style="fill:#ffffff;fill-opacity:1;stroke:none" /></g></svg>
