<?xml version="1.0" encoding="UTF-8" standalone="no"?>
<svg
   viewBox="0 0 20 20"
   xml:space="preserve"
   version="1.1"
   id="svg6"
   xmlns="http://www.w3.org/2000/svg"
   xmlns:svg="http://www.w3.org/2000/svg"><defs
   id="defs10" />
    
<path
   d="m 15.507815,13.282056 a 0.45843527,0.45843527 0 0 1 0.451229,0.46555 v 2.750336 a 0.45843527,0.45843527 0 0 1 -0.458389,0.45839 H 4.4993082 a 0.45843527,0.45843527 0 0 1 -0.4583894,-0.45839 v -2.750336 a 0.45843527,0.45843527 0 1 1 0.9167788,0 v 2.291947 H 15.042265 v -2.291947 a 0.45843527,0.45843527 0 0 1 0.46555,-0.46555 z"
   opacity="0.6"
   id="path862"
   style="fill:#ffffff;stroke-width:0.916779;opacity:1" /><path
   d="M 9.999475,3.044057 C 9.7470124,3.0479991 9.5452844,3.2553498 9.5482456,3.5078187 V 10.652248 L 7.5954883,8.6994916 C 7.1634562,8.2495302 6.4973339,8.9156461 6.9472981,9.347683 l 2.7352373,2.735241 c 0.1790194,0.178942 0.4691796,0.178942 0.6481996,0 L 13.065972,9.327425 C 13.51593,8.895388 12.849814,8.2292721 12.417782,8.6792336 L 10.465024,10.652248 V 3.5078187 C 10.467824,3.2497427 10.257539,3.0400332 9.999475,3.044057 Z"
   id="path864"
   style="fill:#ffffff;stroke-width:0.916779" /></svg>
