<?xml version="1.0" encoding="UTF-8" standalone="no"?>
<svg
   viewBox="0 0 20 20"
   xml:space="preserve"
   version="1.1"
   id="svg1"
   xmlns="http://www.w3.org/2000/svg"
   xmlns:svg="http://www.w3.org/2000/svg"><defs
   id="defs1" />
    
<g
   id="g1272"
   transform="translate(0.00412213,1.9985573)"><path
     fill="#ffffff"
     d="m 5.995,12.504885 a 0.5,0.5 0 0 1 -0.35,-0.86 l 4,-4.0000004 a 0.5,0.5 0 0 1 0.708,0 l 4,4.0000004 a 0.50027817,0.50027817 0 1 1 -0.707,0.708 L 9.999,8.7058846 6.353,12.352885 a 0.5,0.5 0 0 1 -0.358,0.152 z"
     id="path1" /><path
     fill="#ffffff"
     d="m 5.995,8.504885 a 0.5,0.5 0 0 1 -0.35,-0.86 l 4,-4 a 0.5,0.5 0 0 1 0.708,0 l 4,4 a 0.50027817,0.50027817 0 1 1 -0.707,0.708 l -3.647,-3.647 -3.646,3.647 a 0.5,0.5 0 0 1 -0.358,0.152 z"
     id="path1268" /></g></svg>
