<?xml version="1.0" encoding="UTF-8" standalone="no"?>
<svg
   viewBox="0 0 20 20"
   xml:space="preserve"
   version="1.1"
   id="svg1329"
   xmlns="http://www.w3.org/2000/svg"
   xmlns:svg="http://www.w3.org/2000/svg"><defs
   id="defs1333" />
    
<g
   id="g1396"
   transform="translate(0.00412213,-2.0014423)"><path
     fill="#ffffff"
     d="m 5.995,7.498 a 0.5,0.5 0 0 0 -0.35,0.86 l 4,4 a 0.5,0.5 0 0 0 0.708,0 l 4,-4 A 0.50027817,0.50027817 0 1 0 13.646,7.65 L 9.999,11.297 6.353,7.65 A 0.5,0.5 0 0 0 5.995,7.498 Z"
     id="path1327" /><path
     fill="#ffffff"
     d="m 5.995,11.498 a 0.5,0.5 0 0 0 -0.35,0.86 l 4,4 a 0.5,0.5 0 0 0 0.708,0 l 4,-4 A 0.50027817,0.50027817 0 1 0 13.646,11.65 L 9.999,15.297 6.353,11.65 A 0.5,0.5 0 0 0 5.995,11.498 Z"
     id="path1392" /></g></svg>
