<?xml version="1.0" encoding="UTF-8" standalone="no"?>
<svg
   viewBox="0 0 20 20"
   xml:space="preserve"
   version="1.1"
   id="svg1"
   sodipodi:docname="view-list-details.svg"
   inkscape:version="1.1.2 (0a00cf5339, 2022-02-04)"
   xmlns:inkscape="http://www.inkscape.org/namespaces/inkscape"
   xmlns:sodipodi="http://sodipodi.sourceforge.net/DTD/sodipodi-0.dtd"
   xmlns="http://www.w3.org/2000/svg"
   xmlns:svg="http://www.w3.org/2000/svg"><sodipodi:namedview
   id="namedview854"
   pagecolor="#505050"
   bordercolor="#ffffff"
   borderopacity="1"
   inkscape:pageshadow="0"
   inkscape:pageopacity="0"
   inkscape:pagecheckerboard="1"
   showgrid="false"
   inkscape:zoom="23.9"
   inkscape:cx="-2.7615063"
   inkscape:cy="10"
   inkscape:window-width="1920"
   inkscape:window-height="1026"
   inkscape:window-x="0"
   inkscape:window-y="0"
   inkscape:window-maximized="1"
   inkscape:current-layer="svg1" /><defs
   id="defs1" />
    
<g
   id="g34189"
   style="display:inline;enable-background:new"
   inkscape:label="D-6"
   transform="translate(-108.00781,-70.5)"><path
     id="path14479-6"
     style="color:#000000;font-style:normal;font-variant:normal;font-weight:normal;font-stretch:normal;font-size:medium;line-height:normal;font-family:sans-serif;font-variant-ligatures:normal;font-variant-position:normal;font-variant-caps:normal;font-variant-numeric:normal;font-variant-alternates:normal;font-feature-settings:normal;text-indent:0;text-align:start;text-decoration:none;text-decoration-line:none;text-decoration-style:solid;text-decoration-color:#000000;letter-spacing:normal;word-spacing:normal;text-transform:none;writing-mode:lr-tb;direction:ltr;text-orientation:mixed;dominant-baseline:auto;baseline-shift:baseline;text-anchor:start;white-space:normal;shape-padding:0;clip-rule:nonzero;display:inline;overflow:visible;visibility:visible;opacity:1;isolation:auto;mix-blend-mode:normal;color-interpolation:sRGB;color-interpolation-filters:linearRGB;solid-color:#000000;solid-opacity:1;vector-effect:none;fill:#ffffff;fill-opacity:1;fill-rule:nonzero;stroke:none;stroke-width:1;stroke-linecap:round;stroke-linejoin:round;stroke-miterlimit:4;stroke-dasharray:none;stroke-dashoffset:0;stroke-opacity:1;marker:none;paint-order:fill markers stroke;color-rendering:auto;image-rendering:auto;shape-rendering:auto;text-rendering:auto;enable-background:new"
     d="m 111.51563,74 c -0.27614,2.8e-5 -0.49998,0.223869 -0.5,0.5 v 12 c 2e-5,0.276131 0.22386,0.499972 0.5,0.5 H 114.5 c 0.27613,-2.8e-5 0.49997,-0.223869 0.5,-0.5 v -12 c -3e-5,-0.276131 -0.22387,-0.499972 -0.5,-0.5 z m 0.5,1 H 114 v 2 h -1.98437 z m 0,3 H 114 v 2 h -1.98437 z m 0,3 H 114 v 2 h -1.98437 z m 0,3 H 114 v 2 h -1.98437 z M 124,81.000005 h 1 v 1 h -1 z m -2,0 h 1 v 1 h -1 z m -2,0 h 1 v 1 h -1 z m -2,0 h 1 v 1 h -1 z m -2,0 h 1 v 1 h -1 z m 8,-3 h 1 v 1 h -1 z m -2,0 h 1 v 1 h -1 z m -2,0 h 1 v 1 h -1 z m -2,0 h 1 v 1 h -1 z m -2,0 h 1 v 1 h -1 z m 8,-3 h 1 v 1 h -1 z m -2,0 h 1 v 1 h -1 z m -2,0 h 1 v 1 h -1 z m -2,0 h 1 v 1 h -1 z m -2,0 h 1 v 1 h -1 z"
     inkscape:connector-curvature="0" /></g></svg>
