<?xml version="1.0" encoding="UTF-8" standalone="no"?>
<svg
   viewBox="0 0 32 32"
   xml:space="preserve"
   version="1.1"
   id="svg929"
   sodipodi:docname="booleans_intersection.svg"
   inkscape:version="1.4 (e7c3feb1, 2024-10-09)"
   width="32"
   height="32"
   inkscape:export-filename="booleans_intersection.png"
   inkscape:export-xdpi="192"
   inkscape:export-ydpi="192"
   xmlns:inkscape="http://www.inkscape.org/namespaces/inkscape"
   xmlns:sodipodi="http://sodipodi.sourceforge.net/DTD/sodipodi-0.dtd"
   xmlns="http://www.w3.org/2000/svg"
   xmlns:svg="http://www.w3.org/2000/svg"><defs
   id="defs933"><inkscape:path-effect
     effect="fillet_chamfer"
     id="path-effect23"
     is_visible="true"
     lpeversion="1"
     nodesatellites_param="F,0,0,1,0,2,0,1 @ F,0,0,1,0,2,0,1 @ F,0,0,1,0,0,0,1 @ F,0,0,1,0,0,0,1 @ F,0,0,1,0,0,0,1 @ F,0,0,1,0,0,0,1 @ F,0,0,1,0,2,0,1 @ F,0,0,1,0,2,0,1 @ F,0,0,1,0,0,0,1 @ F,0,0,1,0,0,0,1 @ F,0,0,1,0,0,0,1 @ F,0,0,1,0,0,0,1 | F,0,0,1,0,0,0,1 @ F,0,0,1,0,0,0,1 @ F,0,0,1,0,0,0,1 @ F,0,0,1,0,0,0,1 | F,0,0,1,0,0,0,1 @ F,0,0,1,0,0,0,1 @ F,0,0,1,0,0,0,1 @ F,0,0,1,0,0,0,1 | F,0,0,1,0,0,0,1 @ F,0,0,1,0,0,0,1 @ F,0,0,1,0,0,0,1 @ F,0,0,1,0,0,0,1 @ F,0,0,1,0,0,0,1 @ F,0,0,1,0,0,0,1 @ F,0,0,1,0,0,0,1 @ F,0,0,1,0,0,0,1 | F,0,0,1,0,0,0,1 @ F,0,0,1,0,0,0,1 @ F,0,0,1,0,0,0,1 @ F,0,0,1,0,0,0,1 | F,0,0,1,0,0,0,1 @ F,0,0,1,0,0,0,1 @ F,0,0,1,0,0,0,1 @ F,0,0,1,0,0,0,1 | F,0,0,1,0,0,0,1 @ F,0,0,1,0,0,0,1 @ F,0,0,1,0,0,0,1 @ F,0,0,1,0,0,0,1 | F,0,0,1,0,0,0,1 @ F,0,0,1,0,0,0,1 @ F,0,0,1,0,0,0,1 @ F,0,0,1,0,0,0,1"
     radius="0"
     unit="px"
     method="auto"
     mode="F"
     chamfer_steps="1"
     flexible="false"
     use_knot_distance="true"
     apply_no_radius="true"
     apply_with_radius="true"
     only_selected="false"
     hide_knots="false" /></defs><sodipodi:namedview
   id="namedview931"
   pagecolor="#000000"
   bordercolor="#ffffff"
   borderopacity="1"
   inkscape:pageshadow="0"
   inkscape:pageopacity="0"
   inkscape:pagecheckerboard="false"
   showgrid="true"
   showguides="true"
   inkscape:guide-bbox="true"
   inkscape:zoom="19.637271"
   inkscape:cx="16.193696"
   inkscape:cy="15.226148"
   inkscape:window-width="2560"
   inkscape:window-height="1355"
   inkscape:window-x="1920"
   inkscape:window-y="0"
   inkscape:window-maximized="1"
   inkscape:current-layer="svg929"
   inkscape:showpageshadow="2"
   inkscape:deskcolor="#d1d1d1"
   inkscape:lockguides="true"
   guidecolor="#e50000"
   guideopacity="0.4"
   guidehicolor="#ff0000"
   guidehiopacity="0.6"><inkscape:grid
     id="grid1"
     units="px"
     originx="0"
     originy="0"
     spacingx="1"
     spacingy="1"
     empcolor="#0099e5"
     empopacity="0.4"
     color="#0099e5"
     opacity="0.14901961"
     empspacing="8"
     enabled="true"
     visible="true" /><sodipodi:guide
     position="16,26"
     orientation="0,-1"
     id="guide3"
     inkscape:locked="true" /><sodipodi:guide
     position="16,6"
     orientation="0,-1"
     id="guide4"
     inkscape:locked="true" /><sodipodi:guide
     position="6,16"
     orientation="1,0"
     id="guide5"
     inkscape:locked="true" /><sodipodi:guide
     position="26,16"
     orientation="1,0"
     id="guide6"
     inkscape:locked="true" /></sodipodi:namedview>
    
<path
   id="path2"
   style="fill:#ffffff;stroke-linecap:round;stroke-linejoin:round;paint-order:fill markers stroke;fill-opacity:0.30000001"
   d="M 5 12 A 1.000105 1.000105 0 0 0 4 13 L 4 27 A 1.000105 1.000105 0 0 0 5 28 L 19 28 A 1.000105 1.000105 0 0 0 20 27 L 20 13 A 1.000105 1.000105 0 0 0 19 12 L 5 12 z M 6 14 L 18 14 L 18 26 L 6 26 L 6 14 z " /><path
   id="path1"
   style="fill:#ffffff;fill-opacity:0.30000001;stroke:none;stroke-width:2;stroke-linecap:round;stroke-linejoin:miter;stroke-dasharray:2, 4;stroke-dashoffset:0;paint-order:fill markers stroke"
   d="M 20 4 A 7.9999995 7.9999995 0 0 0 12 12 A 7.9999995 7.9999995 0 0 0 20 20 A 7.9999995 7.9999995 0 0 0 28 12 A 7.9999995 7.9999995 0 0 0 20 4 z M 20 6 A 6 6 0 0 1 26 12 A 6 6 0 0 1 20 18 A 6 6 0 0 1 14 12 A 6 6 0 0 1 20 6 z " /><path
   id="path3"
   style="fill:#ffffff;stroke-linecap:round;stroke-linejoin:round;paint-order:fill markers stroke;fill-opacity:1"
   d="M 12 12 A 7.9999995 7.9999995 0 0 0 20 20 L 20 13 A 1.000105 1.000105 0 0 0 19 12 L 12 12 z " /></svg>
