<?xml version="1.0" encoding="UTF-8" standalone="no"?>
<svg
   viewBox="0 0 32 32"
   xml:space="preserve"
   version="1.1"
   id="svg929"
   sodipodi:docname="booleans_division.svg"
   inkscape:version="1.4 (e7c3feb1, 2024-10-09)"
   width="32"
   height="32"
   inkscape:export-filename="booleans_division.png"
   inkscape:export-xdpi="192"
   inkscape:export-ydpi="192"
   xmlns:inkscape="http://www.inkscape.org/namespaces/inkscape"
   xmlns:sodipodi="http://sodipodi.sourceforge.net/DTD/sodipodi-0.dtd"
   xmlns="http://www.w3.org/2000/svg"
   xmlns:svg="http://www.w3.org/2000/svg"><defs
   id="defs933"><inkscape:path-effect
     effect="fillet_chamfer"
     id="path-effect23"
     is_visible="true"
     lpeversion="1"
     nodesatellites_param="F,0,0,1,0,2,0,1 @ F,0,0,1,0,2,0,1 @ F,0,0,1,0,0,0,1 @ F,0,0,1,0,0,0,1 @ F,0,0,1,0,0,0,1 @ F,0,0,1,0,0,0,1 @ F,0,0,1,0,2,0,1 @ F,0,0,1,0,2,0,1 @ F,0,0,1,0,0,0,1 @ F,0,0,1,0,0,0,1 @ F,0,0,1,0,0,0,1 @ F,0,0,1,0,0,0,1 | F,0,0,1,0,0,0,1 @ F,0,0,1,0,0,0,1 @ F,0,0,1,0,0,0,1 @ F,0,0,1,0,0,0,1 | F,0,0,1,0,0,0,1 @ F,0,0,1,0,0,0,1 @ F,0,0,1,0,0,0,1 @ F,0,0,1,0,0,0,1 | F,0,0,1,0,0,0,1 @ F,0,0,1,0,0,0,1 @ F,0,0,1,0,0,0,1 @ F,0,0,1,0,0,0,1 @ F,0,0,1,0,0,0,1 @ F,0,0,1,0,0,0,1 @ F,0,0,1,0,0,0,1 @ F,0,0,1,0,0,0,1 | F,0,0,1,0,0,0,1 @ F,0,0,1,0,0,0,1 @ F,0,0,1,0,0,0,1 @ F,0,0,1,0,0,0,1 | F,0,0,1,0,0,0,1 @ F,0,0,1,0,0,0,1 @ F,0,0,1,0,0,0,1 @ F,0,0,1,0,0,0,1 | F,0,0,1,0,0,0,1 @ F,0,0,1,0,0,0,1 @ F,0,0,1,0,0,0,1 @ F,0,0,1,0,0,0,1 | F,0,0,1,0,0,0,1 @ F,0,0,1,0,0,0,1 @ F,0,0,1,0,0,0,1 @ F,0,0,1,0,0,0,1"
     radius="0"
     unit="px"
     method="auto"
     mode="F"
     chamfer_steps="1"
     flexible="false"
     use_knot_distance="true"
     apply_no_radius="true"
     apply_with_radius="true"
     only_selected="false"
     hide_knots="false" /></defs><sodipodi:namedview
   id="namedview931"
   pagecolor="#000000"
   bordercolor="#ffffff"
   borderopacity="1"
   inkscape:pageshadow="0"
   inkscape:pageopacity="0"
   inkscape:pagecheckerboard="false"
   showgrid="true"
   showguides="true"
   inkscape:guide-bbox="true"
   inkscape:zoom="15.93805"
   inkscape:cx="13.301501"
   inkscape:cy="14.179902"
   inkscape:window-width="2560"
   inkscape:window-height="1355"
   inkscape:window-x="1920"
   inkscape:window-y="0"
   inkscape:window-maximized="1"
   inkscape:current-layer="svg929"
   inkscape:showpageshadow="2"
   inkscape:deskcolor="#d1d1d1"
   inkscape:lockguides="true"
   guidecolor="#e50000"
   guideopacity="0.4"
   guidehicolor="#ff0000"
   guidehiopacity="0.6"><inkscape:grid
     id="grid1"
     units="px"
     originx="0"
     originy="0"
     spacingx="1"
     spacingy="1"
     empcolor="#0099e5"
     empopacity="0.4"
     color="#0099e5"
     opacity="0.14901961"
     empspacing="8"
     enabled="true"
     visible="true" /><sodipodi:guide
     position="16,26"
     orientation="0,-1"
     id="guide3"
     inkscape:locked="true" /><sodipodi:guide
     position="16,6"
     orientation="0,-1"
     id="guide4"
     inkscape:locked="true" /><sodipodi:guide
     position="6,16"
     orientation="1,0"
     id="guide5"
     inkscape:locked="true" /><sodipodi:guide
     position="26,16"
     orientation="1,0"
     id="guide6"
     inkscape:locked="true" /></sodipodi:namedview>
    
<path
   id="path4"
   style="fill:#ffffff;fill-opacity:0.30000001;stroke:none;stroke-width:2;stroke-linecap:round;stroke-dasharray:none;paint-order:fill markers stroke"
   d="M 19 4 A 9 9 0 0 0 10.072266 12 L 12.078125 12 A 7 7 0 0 1 19 6 A 7 7 0 0 1 26 13 A 7 7 0 0 1 20 19.921875 L 20 21.927734 A 9 9 0 0 0 28 13 A 9 9 0 0 0 19 4 z " /><path
   id="path2"
   style="fill:#ffffff;stroke-linecap:round;stroke-linejoin:round;paint-order:fill markers stroke"
   d="M 5 12 C 4.4477393 12.000058 4.000058 12.447739 4 13 L 4 27 C 4.000058 27.552261 4.4477393 27.999942 5 28 L 19 28 C 19.552261 27.999942 19.999942 27.552261 20 27 L 20 21.927734 A 9 9 0 0 1 19 22 A 9 9 0 0 1 10 13 A 9 9 0 0 1 10.072266 12 L 5 12 z M 12.078125 12 A 7 7 0 0 0 12 13 A 7 7 0 0 0 19 20 A 7 7 0 0 0 20 19.921875 L 20 13 C 19.999942 12.447739 19.552261 12.000058 19 12 L 12.078125 12 z " /></svg>
