<?xml version="1.0" encoding="UTF-8" standalone="no"?>
<!-- Created with Inkscape (http://www.inkscape.org/) -->

<svg
   width="16"
   height="16"
   viewBox="0 0 16 16"
   version="1.1"
   id="svg5"
   inkscape:version="1.1.2 (0a00cf5339, 2022-02-04)"
   xml:space="preserve"
   sodipodi:docname="fill_gradient_radial_2.svg"
   xmlns:inkscape="http://www.inkscape.org/namespaces/inkscape"
   xmlns:sodipodi="http://sodipodi.sourceforge.net/DTD/sodipodi-0.dtd"
   xmlns="http://www.w3.org/2000/svg"
   xmlns:svg="http://www.w3.org/2000/svg"><sodipodi:namedview
     id="namedview7"
     pagecolor="#808080"
     bordercolor="#000000"
     borderopacity="0.25"
     inkscape:showpageshadow="false"
     inkscape:pageopacity="0.0"
     inkscape:pagecheckerboard="0"
     inkscape:deskcolor="#d1d1d1"
     inkscape:document-units="px"
     showgrid="true"
     inkscape:zoom="20.463359"
     inkscape:cx="8.0143246"
     inkscape:cy="0.83075316"
     inkscape:window-width="1920"
     inkscape:window-height="1026"
     inkscape:window-x="0"
     inkscape:window-y="0"
     inkscape:window-maximized="1"
     inkscape:current-layer="layer1"
     inkscape:pageshadow="0"><inkscape:grid
       id="grid1"
       units="px"
       originx="0"
       originy="0"
       spacingx="1"
       spacingy="1"
       empcolor="#0099e5"
       empopacity="0.30196078"
       color="#0099e5"
       opacity="0.14901961"
       empspacing="5"
       enabled="true"
       visible="false" /></sodipodi:namedview><defs
     id="defs2" /><g
     inkscape:label="Layer 1"
     inkscape:groupmode="layer"
     id="layer1"><path
       d="m 13.64069,8 c 0,1.4960077 -0.594287,2.930741 -1.652158,3.988532 v 0 C 10.930741,13.046403 9.4960077,13.64069 8,13.64069 v 0 c -1.4960077,0 -2.9307334,-0.594287 -3.9885723,-1.652158 v 0 C 2.9535968,10.930741 2.3593098,9.4960077 2.3593098,8 v 0 c 0,-1.4960077 0.594287,-2.9307334 1.6521179,-3.9885723 v 0 C 5.0692666,2.9535968 6.5039923,2.3593098 8,2.3593098 v 0 c 1.4960077,0 2.930741,0.594287 3.988532,1.6521179 v 0 C 13.046403,5.0692666 13.64069,6.5039923 13.64069,8 Z"
       style="opacity:0.0576923;fill:#ffffff;stroke-width:1.61163px"
       id="path80" /><path
       d="m 13.201119,8 c 0,1.3794308 -0.547953,2.702374 -1.523308,3.677811 h -8.1e-5 C 10.702293,12.653166 9.3794147,13.201119 8,13.201119 h -5.64e-5 c -1.3794147,0 -2.7023257,-0.547953 -3.6777139,-1.523308 l -4.03e-5,-8.1e-5 C 3.3468093,10.702293 2.7988405,9.3794147 2.7988405,8 v -5.64e-5 c 1.61e-5,-1.3794147 0.547993,-2.7023257 1.5233892,-3.6777139 l 4.03e-5,-4.03e-5 C 5.2976662,3.3468093 6.6205853,2.7988405 8,2.7988405 h 5.64e-5 c 1.3794147,1.61e-5 2.7023176,0.547993 3.6777546,1.5233892 V 4.32227 C 12.653166,5.2976662 13.201119,6.6205853 13.201119,8 Z"
       style="opacity:0.0884615;fill:#ffffff;stroke-width:1.61163px"
       id="path81" /><path
       d="m 12.761629,8 c 0,1.2628619 -0.501699,2.474007 -1.39462,3.367009 l -8.1e-5,8e-5 C 10.473926,12.26001 9.2628216,12.761629 8,12.761629 h -1.128e-4 c -1.2628216,0 -2.47391,-0.501699 -3.3668635,-1.39462 l -8.06e-5,-8.1e-5 C 3.7400138,10.473926 3.2383792,9.2628216 3.2383792,8 v -1.128e-4 c 3.22e-5,-1.2628216 0.5016991,-2.47391 1.3946445,-3.3668635 l 8.06e-5,-8.06e-5 C 5.5260739,3.7400138 6.7371784,3.2383792 8,3.2383792 h 1.128e-4 c 1.2628216,3.22e-5 2.4738942,0.5016991 3.3668962,1.3946445 l 8e-5,8.06e-5 C 12.26001,5.5260739 12.761629,6.7371784 12.761629,8 Z"
       style="opacity:0.126923;fill:#ffffff;stroke-width:1.61163px"
       id="path82" /><path
       d="m 12.322058,8 c 0,1.1462849 -0.455365,2.245639 -1.265851,3.056207 l -1.62e-4,8e-5 C 10.245559,11.866774 9.1462285,12.322058 8,12.322058 h -1.692e-4 c -1.1462286,0 -2.2455024,-0.455365 -3.0560051,-1.265851 l -1.209e-4,-1.62e-4 C 4.1332263,10.245559 3.6779098,9.1462285 3.6779098,8 V 7.9998308 C 3.6779581,6.8536022 4.1333149,5.7543284 4.9438257,4.9438257 l 1.209e-4,-1.209e-4 C 5.7544815,4.1332263 6.8537715,3.6779098 8,3.6779098 h 1.692e-4 c 1.1462286,4.83e-5 2.2454698,0.4554051 3.0560378,1.2659159 l 8e-5,1.209e-4 C 11.866774,5.7544815 12.322058,6.8537715 12.322058,8 Z"
       style="opacity:0.2;fill:#ffffff;stroke-width:1.61163px"
       id="path83" /><path
       d="m 11.882568,8 c 0,1.029716 -0.409031,2.017272 -1.137164,2.745404 l -1.61e-4,1.62e-4 C 10.017111,11.473537 9.0296435,11.882568 8,11.882568 H 7.9997744 C 6.9701389,11.882487 5.9826877,11.473456 5.2546197,10.745404 l -1.612e-4,-1.61e-4 C 4.5264388,10.017111 4.1174485,9.0296435 4.1174485,8 V 7.9997744 C 4.1175049,6.9701389 4.5265516,5.9826877 5.2546197,5.2546197 l 1.612e-4,-1.612e-4 C 5.9828892,4.5264388 6.9703565,4.1174485 8,4.1174485 h 2.256e-4 c 1.0296355,5.64e-5 2.0171274,0.4091031 2.7451784,1.1371712 l 1.62e-4,1.612e-4 C 11.473537,5.9828892 11.882568,6.9703565 11.882568,8 Z"
       style="opacity:0.138462;fill:#ffffff;stroke-width:1.61163px"
       id="path84" /><path
       d="m 11.442997,8 c 0,0.9131472 -0.362697,1.7889046 -1.008395,2.434602 l -2.41e-4,1.62e-4 C 9.7887434,11.080381 8.9130505,11.442997 8,11.442997 H 7.999718 C 7.0866756,11.442916 6.211039,11.08022 5.5654217,10.434602 l -2.014e-4,-2.41e-4 C 4.9196513,9.7887434 4.5569791,8.9130505 4.5569791,8 V 7.999718 C 4.5570597,7.0866756 4.9197964,6.211039 5.5654217,5.5654217 l 2.015e-4,-2.014e-4 C 6.2112888,4.9196513 7.0869495,4.5569791 8,4.5569791 h 2.82e-4 c 0.9130424,8.06e-5 1.7887032,0.3628173 2.43432,1.0084426 l 1.62e-4,2.015e-4 C 11.080381,6.2112888 11.442997,7.0869495 11.442997,8 Z"
       style="opacity:0.226923;fill:#ffffff;stroke-width:1.61163px"
       id="path85" /><path
       d="m 11.003506,8 c 0,0.7965702 -0.316442,1.5605211 -0.879706,2.1238 l -2.41e-4,2.42e-4 C 9.5603035,10.687144 8.7964574,11.003506 8,11.003506 H 7.9996616 C 7.2032042,11.003426 6.4393983,10.686983 5.8762157,10.1238 l -2.418e-4,-2.41e-4 C 5.3128638,9.5603035 4.9965178,8.7964574 4.9965178,8 V 7.9996616 C 4.9966065,7.2032042 5.3130331,6.4393983 5.8762157,5.8762157 l 2.417e-4,-2.418e-4 C 6.4396965,5.3128638 7.2035426,4.9965178 8,4.9965178 h 3.384e-4 c 0.7964574,8.87e-5 1.5602633,0.3165153 2.1234616,0.8796979 l 2.42e-4,2.417e-4 C 10.687144,6.4396965 11.003506,7.2035426 11.003506,8 Z"
       style="opacity:0.257692;fill:#ffffff;stroke-width:1.61163px"
       id="path86" /><path
       d="m 10.563935,8 c 0,0.6800013 -0.270108,1.3321537 -0.7509366,1.8129984 l -3.223e-4,2.417e-4 C 9.3318959,10.293908 8.6798724,10.563935 8,10.563935 h -3.948e-4 c -0.6798644,-8e-5 -1.3318556,-0.270189 -1.8125955,-0.7509366 l -2.74e-4,-3.223e-4 C 5.7060764,9.3318959 5.4360485,8.6798724 5.4360485,8 V 7.9996052 C 5.4361532,7.3197408 5.7062697,6.6677496 6.1870097,6.1870097 l 2.82e-4,-2.74e-4 C 6.6681041,5.7060764 7.3201276,5.4360485 8,5.4360485 h 3.948e-4 c 0.6798644,1.047e-4 1.3318556,0.2702212 1.8126036,0.7509612 l 2.417e-4,2.82e-4 C 10.293908,6.6681041 10.563935,7.3201276 10.563935,8 Z"
       style="opacity:0.342308;fill:#ffffff;stroke-width:1.61163px"
       id="path87" /><path
       d="m 10.124445,8 c 0,0.5634324 -0.2238547,1.1037864 -0.6222567,1.5021883 L 9.501866,9.5025106 C 9.1034963,9.9007514 8.5632793,10.124445 8,10.124445 H 7.9995407 C 7.4362775,10.124284 6.8961089,9.9005097 6.4978117,9.5021883 L 6.4974894,9.501866 C 6.0992889,9.1034963 5.8755872,8.5632793 5.8755872,8 V 7.9995407 C 5.875708,7.4362775 6.0995145,6.8961089 6.4978117,6.4978117 L 6.498134,6.4974894 C 6.8965037,6.0992889 7.4367207,5.8755872 8,5.8755872 h 4.593e-4 c 0.5632632,1.208e-4 1.1034318,0.2239273 1.501729,0.6222245 l 3.223e-4,3.223e-4 C 9.9007514,6.8965037 10.124445,7.4367207 10.124445,8 Z"
       style="opacity:0.307692;fill:#ffffff;stroke-width:1.61163px"
       id="path88" /><path
       d="m 9.6848742,8 c 0,0.4468555 -0.1775045,0.8754109 -0.4934799,1.1913943 L 9.1910317,9.191757 C 8.8750886,9.5075067 8.4466863,9.6848742 8,9.6848742 H 7.9994843 C 7.5528141,9.684713 7.1244682,9.5072488 6.8086057,9.1913943 L 6.808243,9.1910317 C 6.4924933,8.8750886 6.3151178,8.4466863 6.3151178,8 V 7.9994843 C 6.3152548,7.5528141 6.4927512,7.1244682 6.8086057,6.8086057 L 6.8089683,6.808243 C 7.1249114,6.4924933 7.5533137,6.3151178 8,6.3151178 h 5.157e-4 c 0.4466702,1.37e-4 0.8750161,0.1776334 1.1908786,0.4934879 l 3.627e-4,3.626e-4 C 9.5075067,7.1249114 9.6848742,7.5533137 9.6848742,8 Z"
       style="opacity:0.484615;fill:#ffffff;stroke-width:1.61163px"
       id="path89" /><path
       d="m 9.2453435,8 c 0,0.3302866 -0.1312024,0.6470436 -0.3647512,0.8805923 l -4.029e-4,4.029e-4 C 8.646681,9.1142942 8.3300932,9.2453435 8,9.2453435 H 7.9994279 C 7.6693508,9.2451985 7.3528194,9.1140041 7.1194077,8.8805923 L 7.1190048,8.8801894 C 6.8857058,8.646681 6.7546565,8.3300932 6.7546565,8 V 7.9994279 C 6.7548015,7.6693508 6.8859959,7.3528194 7.1194077,7.1194077 l 4.029e-4,-4.029e-4 C 7.353319,6.8857058 7.6699068,6.7546565 8,6.7546565 h 5.721e-4 c 0.3300771,1.45e-4 0.6466085,0.1313394 0.8800202,0.3647512 l 4.029e-4,4.029e-4 C 9.1142942,7.353319 9.2453435,7.6699068 9.2453435,8 Z"
       style="opacity:0.607692;fill:#ffffff;stroke-width:1.61163px"
       id="path90" /><path
       d="m 8.8058129,8 c 0,0.2137177 -0.0849,0.4186762 -0.2360146,0.5697983 l -4.432e-4,4.432e-4 C 8.4182733,8.7210817 8.2135082,8.8058129 8,8.8058129 H 7.9993715 C 7.7858875,8.8056437 7.5811788,8.7207674 7.4302017,8.5697983 L 7.4297585,8.5693551 C 7.2789183,8.4182733 7.1941871,8.2135082 7.1941871,8 v -6.285e-4 c 1.692e-4,-0.213484 0.085046,-0.4181927 0.2360146,-0.5691698 l 4.432e-4,-4.432e-4 C 7.5817267,7.2789183 7.7864918,7.1941871 8,7.1941871 h 6.285e-4 c 0.213484,1.692e-4 0.4181927,0.085046 0.5691698,0.2360146 l 4.432e-4,4.432e-4 C 8.7210817,7.5817267 8.8058129,7.7864918 8.8058129,8 Z"
       style="fill:#ffffff;stroke-width:1.61163px"
       id="path91" /></g></svg>
