<?xml version="1.0" encoding="UTF-8" standalone="no"?>
<svg
   viewBox="0 0 32 32"
   xml:space="preserve"
   version="1.1"
   id="svg929"
   sodipodi:docname="gizmos.svg"
   inkscape:version="1.2.2 (b0a8486541, 2022-12-01)"
   width="32"
   height="32"
   inkscape:export-filename="zoom_horizontal.png"
   inkscape:export-xdpi="192"
   inkscape:export-ydpi="192"
   xmlns:inkscape="http://www.inkscape.org/namespaces/inkscape"
   xmlns:sodipodi="http://sodipodi.sourceforge.net/DTD/sodipodi-0.dtd"
   xmlns="http://www.w3.org/2000/svg"
   xmlns:svg="http://www.w3.org/2000/svg"><defs
   id="defs933"><inkscape:path-effect
     effect="fillet_chamfer"
     id="path-effect3"
     is_visible="true"
     lpeversion="1"
     nodesatellites_param="F,0,0,1,0,0,0,1 @ F,0,0,1,0,0,0,1 @ F,0,0,1,0,0,0,1 @ F,0,0,1,0,0,0,1 @ F,0,0,1,0,0,0,1 @ F,0,0,1,0,0,0,1 @ F,0,0,1,0,0,0,1 @ F,0,0,1,0,0,0,1 @ F,0,0,1,0,0,0,1 @ F,0,0,1,0,0,0,1"
     radius="0"
     unit="px"
     method="auto"
     mode="F"
     chamfer_steps="1"
     flexible="false"
     use_knot_distance="true"
     apply_no_radius="true"
     apply_with_radius="true"
     only_selected="false"
     hide_knots="false" /><inkscape:path-effect
     effect="fillet_chamfer"
     id="path-effect23"
     is_visible="true"
     lpeversion="1"
     nodesatellites_param="F,0,0,1,0,2,0,1 @ F,0,0,1,0,2,0,1 @ F,0,0,1,0,0,0,1 @ F,0,0,1,0,0,0,1 @ F,0,0,1,0,0,0,1 @ F,0,0,1,0,0,0,1 @ F,0,0,1,0,2,0,1 @ F,0,0,1,0,2,0,1 @ F,0,0,1,0,0,0,1 @ F,0,0,1,0,0,0,1 @ F,0,0,1,0,0,0,1 @ F,0,0,1,0,0,0,1 | F,0,0,1,0,0,0,1 @ F,0,0,1,0,0,0,1 @ F,0,0,1,0,0,0,1 @ F,0,0,1,0,0,0,1 | F,0,0,1,0,0,0,1 @ F,0,0,1,0,0,0,1 @ F,0,0,1,0,0,0,1 @ F,0,0,1,0,0,0,1 | F,0,0,1,0,0,0,1 @ F,0,0,1,0,0,0,1 @ F,0,0,1,0,0,0,1 @ F,0,0,1,0,0,0,1 @ F,0,0,1,0,0,0,1 @ F,0,0,1,0,0,0,1 @ F,0,0,1,0,0,0,1 @ F,0,0,1,0,0,0,1 | F,0,0,1,0,0,0,1 @ F,0,0,1,0,0,0,1 @ F,0,0,1,0,0,0,1 @ F,0,0,1,0,0,0,1 | F,0,0,1,0,0,0,1 @ F,0,0,1,0,0,0,1 @ F,0,0,1,0,0,0,1 @ F,0,0,1,0,0,0,1 | F,0,0,1,0,0,0,1 @ F,0,0,1,0,0,0,1 @ F,0,0,1,0,0,0,1 @ F,0,0,1,0,0,0,1 | F,0,0,1,0,0,0,1 @ F,0,0,1,0,0,0,1 @ F,0,0,1,0,0,0,1 @ F,0,0,1,0,0,0,1"
     radius="0"
     unit="px"
     method="auto"
     mode="F"
     chamfer_steps="1"
     flexible="false"
     use_knot_distance="true"
     apply_no_radius="true"
     apply_with_radius="true"
     only_selected="false"
     hide_knots="false" /></defs><sodipodi:namedview
   id="namedview931"
   pagecolor="#000000"
   bordercolor="#ffffff"
   borderopacity="1"
   inkscape:pageshadow="0"
   inkscape:pageopacity="0"
   inkscape:pagecheckerboard="false"
   showgrid="true"
   showguides="true"
   inkscape:guide-bbox="true"
   inkscape:zoom="15.312875"
   inkscape:cx="21.94232"
   inkscape:cy="14.334343"
   inkscape:window-width="1870"
   inkscape:window-height="1014"
   inkscape:window-x="50"
   inkscape:window-y="29"
   inkscape:window-maximized="1"
   inkscape:current-layer="svg929"
   inkscape:showpageshadow="2"
   inkscape:deskcolor="#d1d1d1"
   inkscape:lockguides="true"
   guidecolor="#e50000"
   guideopacity="0.4"
   guidehicolor="#ff0000"
   guidehiopacity="0.6"><inkscape:grid
     id="grid1"
     units="px"
     originx="0"
     originy="0"
     spacingx="1"
     spacingy="1"
     empcolor="#0099e5"
     empopacity="0.4"
     color="#0099e5"
     opacity="0.14901961"
     empspacing="8"
     enabled="true"
     visible="true" /><sodipodi:guide
     position="16,26"
     orientation="0,-1"
     id="guide3"
     inkscape:locked="true" /><sodipodi:guide
     position="16,6"
     orientation="0,-1"
     id="guide4"
     inkscape:locked="true" /><sodipodi:guide
     position="6,16"
     orientation="1,0"
     id="guide5"
     inkscape:locked="true" /><sodipodi:guide
     position="26,16"
     orientation="1,0"
     id="guide6"
     inkscape:locked="true" /></sodipodi:namedview>
    
<g
   fill="#ffffff"
   id="g361"
   transform="matrix(0.01567357,0,0,0.01567357,3.4611544,3.461029)"><g
     enable-background="new"
     transform="matrix(100,0,0,100,42999.997,-182599.99)"
     id="g359"><path
       d="m -419.5,1827 a 0.50005,0.50005 0 1 0 0,1 h 2.79492 l -2.96875,2.9688 c 0.24471,0.2267 0.48032,0.4623 0.70703,0.707 L -416,1828.709 v 2.791 a 0.50005,0.50005 0 1 0 1,0 v -4 a 0.50005,0.50005 0 0 0 -0.5,-0.5 z m -2.98438,6.7793 -3.50585,3.5059 C -426.28828,1837.1081 -426.63057,1837 -427,1837 c -1.09865,0 -2,0.9013 -2,2 0,1.0986 0.90135,2 2,2 1.09865,0 2,-0.9014 2,-2 0,-0.3677 -0.10771,-0.7107 -0.2832,-1.0078 l 3.50586,-3.5059 c -0.22252,-0.2491 -0.45807,-0.4843 -0.70704,-0.707 z M -427,1838 c 0.55821,0 1,0.4417 1,1 0,0.5582 -0.44179,1 -1,1 -0.55821,0 -1,-0.4418 -1,-1 0,-0.5583 0.44179,-1 1,-1 z"
       id="path355" /><path
       d="m -428.49556,1829 a 0.4997692,0.49966962 0 1 0 0,0.9993 c 5.80308,0 10.49606,4.6921 10.49606,10.494 a 0.4997692,0.49966962 0 1 0 0.99944,0 c 0,-6.3418 -5.1523,-11.4933 -11.4955,-11.4933 z"
       id="path357" /></g></g></svg>
