<?xml version="1.0" encoding="UTF-8" standalone="no"?>
<svg
   viewBox="0 0 20 20"
   xml:space="preserve"
   version="1.1"
   id="svg929"
   sodipodi:docname="markers-edit.svg"
   inkscape:version="1.1.2 (0a00cf5339, 2022-02-04)"
   xmlns:inkscape="http://www.inkscape.org/namespaces/inkscape"
   xmlns:sodipodi="http://sodipodi.sourceforge.net/DTD/sodipodi-0.dtd"
   xmlns="http://www.w3.org/2000/svg"
   xmlns:svg="http://www.w3.org/2000/svg"><defs
   id="defs933" /><sodipodi:namedview
   id="namedview931"
   pagecolor="#505050"
   bordercolor="#ffffff"
   borderopacity="1"
   inkscape:pageshadow="0"
   inkscape:pageopacity="0"
   inkscape:pagecheckerboard="1"
   showgrid="false"
   showguides="true"
   inkscape:guide-bbox="true"
   inkscape:zoom="45.254834"
   inkscape:cx="8.6952037"
   inkscape:cy="9.8111066"
   inkscape:window-width="2560"
   inkscape:window-height="1355"
   inkscape:window-x="1920"
   inkscape:window-y="0"
   inkscape:window-maximized="1"
   inkscape:current-layer="svg929"><sodipodi:guide
     position="9.310132,16.502065"
     orientation="0,-1"
     id="guide1015" /><sodipodi:guide
     position="3.9850101,13.515651"
     orientation="1,0"
     id="guide1017" /><sodipodi:guide
     position="16.003906,13.640625"
     orientation="1,0"
     id="guide1019" /><sodipodi:guide
     position="9.0929513,3.4934761"
     orientation="0,-1"
     id="guide1021" /></sodipodi:namedview>
    
<g
   id="g2152"
   transform="translate(1.3379421,-0.71708679)"><circle
     style="fill:#ffffff;stroke:none;stroke-width:1.47787;stroke-linejoin:round;stroke-dasharray:none;stroke-opacity:1;paint-order:fill markers stroke"
     id="path4"
     cx="11.369701"
     cy="8.0091496"
     r="0.73893571" /><g
     id="g2"
     transform="matrix(-0.11955612,0,0,0.11955612,10.201928,6.517969)"
     style="fill:#ffffff;fill-opacity:1;stroke:none;stroke-width:8.24088;stroke-dasharray:none"><path
       id="path5"
       style="color:#000000;fill:#ffffff;fill-opacity:1;stroke:none;stroke-width:8.24088;stroke-linecap:round;stroke-dasharray:none;stroke-dashoffset:8;paint-order:stroke fill markers"
       d="M 40,-4 10,26 C 8.6823712,27.317629 7.6656745,28.905781 7.0214844,30.654297 L 2.7421875,42.273438 c -0.6856883,1.861154 1.123221,3.670063 2.984375,2.984374 L 17.345703,40.978516 C 19.094219,40.334326 20.682371,39.317629 22,38 L 52,8 Z"
       sodipodi:nodetypes="csccccscc" /><path
       id="path1-1"
       style="fill:#ffffff;fill-opacity:1;stroke:none;stroke-width:8.24088;stroke-linecap:round;stroke-dasharray:none;stroke-dashoffset:8;paint-order:stroke fill markers;stop-color:#000000"
       d="m 56,-10 2,2 c 3,3 3,7 0,10 l -3,3 -12,-12 3,-3 c 3,-3 7,-3 10,0 z"
       sodipodi:nodetypes="cccccsc" /></g><path
     id="path1"
     style="color:#000000;fill:none;fill-opacity:0.862745;stroke:#ffffff;stroke-width:0.985248;stroke-linecap:butt;stroke-linejoin:round;stroke-dasharray:none;stroke-dashoffset:30.2362;stroke-opacity:1;paint-order:markers fill stroke"
     d="M 5.2462714,9.4354549 3.6391376,11.042582 c -0.2078415,0.207956 -0.2008014,0.547103 0.015488,0.746255 l 4.3105101,3.965653 c 0.2090212,0.192335 0.5340278,0.180158 0.7280718,-0.02728 L 13.6934,10.382202 c 0.08958,-0.09582 0.139415,-0.222089 0.13942,-0.353259 V 6.0632893 C 13.832791,5.7776271 13.601222,5.5460589 13.315559,5.5460304 H 9.3498893 C 9.2127124,5.546057 9.0811621,5.6005663 8.9841694,5.6975713 L 7.3797053,7.3020292"
     sodipodi:nodetypes="cccccccccccc" /></g></svg>
