<?xml version="1.0" encoding="UTF-8" standalone="no"?>
<svg
   viewBox="0 0 25 25"
   xml:space="preserve"
   version="1.1"
   id="svg1"
   sodipodi:docname="markers-edit.svg"
   width="25"
   height="25"
   inkscape:version="1.4 (e7c3feb1, 2024-10-09)"
   xmlns:inkscape="http://www.inkscape.org/namespaces/inkscape"
   xmlns:sodipodi="http://sodipodi.sourceforge.net/DTD/sodipodi-0.dtd"
   xmlns="http://www.w3.org/2000/svg"
   xmlns:svg="http://www.w3.org/2000/svg"><defs
   id="defs1" /><sodipodi:namedview
   id="namedview1"
   pagecolor="#000000"
   bordercolor="#000000"
   borderopacity="0.25"
   inkscape:showpageshadow="2"
   inkscape:pageopacity="0.0"
   inkscape:pagecheckerboard="0"
   inkscape:deskcolor="#d1d1d1"
   showgrid="true"
   inkscape:zoom="15.293945"
   inkscape:cx="5.9827597"
   inkscape:cy="8.369325"
   inkscape:current-layer="svg1"><inkscape:grid
     id="grid1"
     units="px"
     originx="0"
     originy="0"
     spacingx="1"
     spacingy="1"
     empcolor="#0099e5"
     empopacity="0.30196078"
     color="#0099e5"
     opacity="0.14901961"
     empspacing="5"
     enabled="true"
     visible="true" /></sodipodi:namedview>
    
<circle
   style="fill:#ffffff;stroke:none;stroke-width:3;stroke-linejoin:round;stroke-dasharray:none;stroke-opacity:1;paint-order:fill markers stroke"
   id="path4"
   cx="18"
   cy="7"
   r="1.5" /><g
   id="g2"
   transform="matrix(-0.24269255,0,0,0.24269255,15.629484,3.9729836)"
   style="fill:#ffffff;fill-opacity:1;opacity:1;stroke:none;stroke-width:8.24087925;stroke-dasharray:none"><path
     id="path5"
     style="color:#000000;fill:#ffffff;fill-opacity:1;stroke-width:8.24087925;stroke-linecap:round;stroke-dashoffset:8;paint-order:stroke fill markers;stroke:none;stroke-dasharray:none"
     d="M 40,-4 10,26 C 8.6823712,27.317629 7.6656745,28.905781 7.0214844,30.654297 L 2.7421875,42.273438 c -0.6856883,1.861154 1.123221,3.670063 2.984375,2.984374 L 17.345703,40.978516 C 19.094219,40.334326 20.682371,39.317629 22,38 L 52,8 Z"
     sodipodi:nodetypes="csccccscc" /><path
     id="path1-1"
     style="fill:#ffffff;fill-opacity:1;stroke-width:8.24087925;stroke-linecap:round;stroke-dashoffset:8;paint-order:stroke fill markers;stop-color:#000000;stroke:none;stroke-dasharray:none"
     d="m 56,-10 2,2 c 3,3 3,7 0,10 l -3,3 -12,-12 3,-3 c 3,-3 7,-3 10,0 z"
     sodipodi:nodetypes="cccccsc" /></g><path
   id="path1"
   style="color:#000000;opacity:1;fill:none;fill-opacity:0.862745;stroke:#ffffff;stroke-width:2;stroke-linecap:butt;stroke-linejoin:round;stroke-dasharray:none;stroke-dashoffset:30.2362;stroke-opacity:1;paint-order:markers fill stroke"
   d="M 5.5697644,9.8953242 2.3073685,13.157707 c -0.421907,0.422139 -0.407616,1.110589 0.03144,1.514856 l 8.7501055,8.050065 c 0.424302,0.390429 1.084048,0.365712 1.477947,-0.05537 L 22.716984,11.817169 C 22.898829,11.622662 22.999989,11.366341 23,11.100074 V 3.050008 C 22.999942,2.470129 22.529869,2.000058 21.949988,2 H 13.89989 c -0.278462,5.4e-5 -0.545502,0.110705 -0.742392,0.30762 L 9.9005214,5.5645839"
   sodipodi:nodetypes="cccccccccccc" /></svg>
