<?xml version="1.0" encoding="UTF-8" standalone="no"?>
<svg
   viewBox="0 0 32 32"
   xml:space="preserve"
   version="1.1"
   id="svg929"
   sodipodi:docname="memory.svg"
   inkscape:version="1.2.2 (b0a8486541, 2022-12-01)"
   width="32"
   height="32"
   inkscape:export-filename="zoom_horizontal.png"
   inkscape:export-xdpi="192"
   inkscape:export-ydpi="192"
   xmlns:inkscape="http://www.inkscape.org/namespaces/inkscape"
   xmlns:sodipodi="http://sodipodi.sourceforge.net/DTD/sodipodi-0.dtd"
   xmlns="http://www.w3.org/2000/svg"
   xmlns:svg="http://www.w3.org/2000/svg"><defs
   id="defs933"><inkscape:path-effect
     effect="fillet_chamfer"
     id="path-effect3"
     is_visible="true"
     lpeversion="1"
     nodesatellites_param="F,0,0,1,0,0,0,1 @ F,0,0,1,0,0,0,1 @ F,0,0,1,0,0,0,1 @ F,0,0,1,0,0,0,1 @ F,0,0,1,0,0,0,1 @ F,0,0,1,0,0,0,1 @ F,0,0,1,0,0,0,1 @ F,0,0,1,0,0,0,1 @ F,0,0,1,0,0,0,1 @ F,0,0,1,0,0,0,1"
     radius="0"
     unit="px"
     method="auto"
     mode="F"
     chamfer_steps="1"
     flexible="false"
     use_knot_distance="true"
     apply_no_radius="true"
     apply_with_radius="true"
     only_selected="false"
     hide_knots="false" /><inkscape:path-effect
     effect="fillet_chamfer"
     id="path-effect23"
     is_visible="true"
     lpeversion="1"
     nodesatellites_param="F,0,0,1,0,2,0,1 @ F,0,0,1,0,2,0,1 @ F,0,0,1,0,0,0,1 @ F,0,0,1,0,0,0,1 @ F,0,0,1,0,0,0,1 @ F,0,0,1,0,0,0,1 @ F,0,0,1,0,2,0,1 @ F,0,0,1,0,2,0,1 @ F,0,0,1,0,0,0,1 @ F,0,0,1,0,0,0,1 @ F,0,0,1,0,0,0,1 @ F,0,0,1,0,0,0,1 | F,0,0,1,0,0,0,1 @ F,0,0,1,0,0,0,1 @ F,0,0,1,0,0,0,1 @ F,0,0,1,0,0,0,1 | F,0,0,1,0,0,0,1 @ F,0,0,1,0,0,0,1 @ F,0,0,1,0,0,0,1 @ F,0,0,1,0,0,0,1 | F,0,0,1,0,0,0,1 @ F,0,0,1,0,0,0,1 @ F,0,0,1,0,0,0,1 @ F,0,0,1,0,0,0,1 @ F,0,0,1,0,0,0,1 @ F,0,0,1,0,0,0,1 @ F,0,0,1,0,0,0,1 @ F,0,0,1,0,0,0,1 | F,0,0,1,0,0,0,1 @ F,0,0,1,0,0,0,1 @ F,0,0,1,0,0,0,1 @ F,0,0,1,0,0,0,1 | F,0,0,1,0,0,0,1 @ F,0,0,1,0,0,0,1 @ F,0,0,1,0,0,0,1 @ F,0,0,1,0,0,0,1 | F,0,0,1,0,0,0,1 @ F,0,0,1,0,0,0,1 @ F,0,0,1,0,0,0,1 @ F,0,0,1,0,0,0,1 | F,0,0,1,0,0,0,1 @ F,0,0,1,0,0,0,1 @ F,0,0,1,0,0,0,1 @ F,0,0,1,0,0,0,1"
     radius="0"
     unit="px"
     method="auto"
     mode="F"
     chamfer_steps="1"
     flexible="false"
     use_knot_distance="true"
     apply_no_radius="true"
     apply_with_radius="true"
     only_selected="false"
     hide_knots="false" /></defs><sodipodi:namedview
   id="namedview931"
   pagecolor="#000000"
   bordercolor="#ffffff"
   borderopacity="1"
   inkscape:pageshadow="0"
   inkscape:pageopacity="0"
   inkscape:pagecheckerboard="false"
   showgrid="true"
   showguides="true"
   inkscape:guide-bbox="true"
   inkscape:zoom="18.211743"
   inkscape:cx="21.579483"
   inkscape:cy="11.393748"
   inkscape:window-width="1870"
   inkscape:window-height="1014"
   inkscape:window-x="50"
   inkscape:window-y="29"
   inkscape:window-maximized="1"
   inkscape:current-layer="svg929"
   inkscape:showpageshadow="2"
   inkscape:deskcolor="#d1d1d1"
   inkscape:lockguides="true"
   guidecolor="#e50000"
   guideopacity="0.4"
   guidehicolor="#ff0000"
   guidehiopacity="0.6"><inkscape:grid
     id="grid1"
     units="px"
     originx="0"
     originy="0"
     spacingx="1"
     spacingy="1"
     empcolor="#0099e5"
     empopacity="0.4"
     color="#0099e5"
     opacity="0.14901961"
     empspacing="8"
     enabled="true"
     visible="true" /><sodipodi:guide
     position="16,26"
     orientation="0,-1"
     id="guide3"
     inkscape:locked="true" /><sodipodi:guide
     position="16,6"
     orientation="0,-1"
     id="guide4"
     inkscape:locked="true" /><sodipodi:guide
     position="6,16"
     orientation="1,0"
     id="guide5"
     inkscape:locked="true" /><sodipodi:guide
     position="26,16"
     orientation="1,0"
     id="guide6"
     inkscape:locked="true" /></sodipodi:namedview>
    
<g
   fill="#ffffff"
   id="g310"
   transform="matrix(0.01536882,0,0,0.01536882,3.7049505,3.70494)"><g
     enable-background="new"
     transform="matrix(100,0,0,100,-29900.196,-9399.965)"
     id="g308"><path
       d="m 263.50391,94.996094 c -0.25245,0 -0.505,0.169732 -0.5,0.507812 L 263,97 h -2.5 a 0.50005,0.50005 0 0 0 -0.5,0.5 v 2.5 l -1.49414,-0.002 c -0.67616,-0.0096 -0.67616,1.01 0,1 L 260,101 v 2 l -1.49414,-0.002 c -0.67616,-0.01 -0.67616,1.01 0,1 L 260,104 v 2.5 a 0.50005,0.50005 0 0 0 0.5,0.5 h 2.5 l 0.004,1.49609 c -0.01,0.67616 1.00956,0.67616 1,0 L 264,107 h 2 l 0.004,1.49609 c -0.01,0.67616 1.00956,0.67616 1,0 L 267,107 h 2.5 a 0.50005,0.50005 0 0 0 0.5,-0.5 V 104 l 1.49805,-0.002 c 0.67616,0.01 0.67616,-1.00956 0,-1 L 270,103 v -2 l 1.49805,-0.002 c 0.67616,0.01 0.67616,-1.009563 0,-1.000003 L 270,100 V 97.5 A 0.50005,0.50005 0 0 0 269.5,97 H 267 l 0.004,-1.496094 c 0.01,-0.67616 -1.01,-0.67616 -1,0 L 266,97 h -2 l 0.004,-1.496094 c 0.005,-0.33808 -0.24756,-0.507812 -0.5,-0.507812 z M 261,98 h 8 v 8 h -8 z"
       transform="translate(42)"
       id="path304" /><path
       d="m 305.5,100 a 0.50005,0.50005 0 0 0 -0.5,0.5 v 3 a 0.50005,0.50005 0 0 0 0.5,0.5 h 3 a 0.50005,0.50005 0 0 0 0.5,-0.5 v -3 a 0.50005,0.50005 0 0 0 -0.5,-0.5 z m 0.5,1 h 2 v 2 h -2 z"
       opacity="0.6"
       id="path306" /></g></g></svg>
