<?xml version="1.0" encoding="UTF-8" standalone="no"?>
<svg
   viewBox="0 0 32 32"
   xml:space="preserve"
   version="1.1"
   id="svg929"
   width="32"
   height="32"
   xmlns="http://www.w3.org/2000/svg"
   xmlns:svg="http://www.w3.org/2000/svg"><defs
   id="defs933" />
    
<path
   style="fill:#ffffff;fill-opacity:1;stroke-width:0.23821"
   d="M 15.050887,25.958583 C 10.668472,25.503697 7.0842104,22.302583 6.2224567,18.073884 5.6742338,15.383705 6.1642766,12.756473 7.6291729,10.532147 10.66157,5.9277029 16.777148,4.6291444 21.396845,7.6087699 c 0.250868,0.1618089 0.456493,0.3088609 0.456941,0.3267837 5.02e-4,0.017913 -0.308329,0.3407711 -0.686171,0.7174409 L 20.480632,9.3378483 20.111923,9.1161151 C 18.883748,8.3775141 17.490875,7.9902201 16.058671,7.9890913 13.985641,7.9874209 12.34639,8.5924652 10.73044,9.9556026 9.4976074,10.99556 8.5536275,12.575162 8.1623891,14.25282 c -0.1674597,0.718077 -0.1977623,2.507882 -0.054692,3.230156 0.1193243,0.602378 0.4113316,1.485279 0.6670476,2.016845 0.7144791,1.485213 2.0769333,2.877705 3.5298693,3.607693 1.334117,0.670292 2.339053,0.911087 3.771422,0.903675 3.872576,-0.02003 7.205963,-2.876132 7.827199,-6.706475 0.187408,-1.155498 0.08913,-2.609602 -0.24817,-3.671752 l -0.153848,-0.484471 0.700559,-0.77924 c 0.385309,-0.428583 0.716776,-0.77917 0.736595,-0.779085 0.01983,8.8e-5 0.140484,0.248253 0.268148,0.55148 0.624218,1.482654 0.900526,3.233798 0.748282,4.742327 -0.136973,1.357199 -0.416418,2.334682 -1.018092,3.561244 -1.393544,2.840835 -4.138913,4.880351 -7.29002,5.415702 -0.717362,0.121875 -1.924863,0.167306 -2.595802,0.09766 z m 0.547472,-3.102607 c -0.3213,-0.243984 -0.307766,-1.26024 0.0191,-1.435182 0.217769,-0.116546 0.484579,-0.07186 0.623203,0.10437 0.106435,0.13531 0.13063,0.255842 0.13063,0.650791 0,0.425186 -0.01791,0.501557 -0.145873,0.621764 -0.162209,0.152388 -0.465955,0.180606 -0.627073,0.05825 z M 10.96202,20.898094 c -0.224973,-0.239472 -0.177743,-0.448899 0.188591,-0.836243 0.340118,-0.359626 0.514236,-0.444616 0.776184,-0.37887 0.193936,0.04867 0.364235,0.359642 0.311666,0.569098 -0.02134,0.08503 -0.190415,0.297986 -0.375724,0.473242 -0.39353,0.372184 -0.664543,0.424171 -0.900717,0.172773 z m 8.921031,-0.218357 c -0.41165,-0.41599 -0.458749,-0.614629 -0.205728,-0.867649 0.238789,-0.238789 0.485718,-0.206035 0.828456,0.109891 0.344169,0.317244 0.488532,0.572881 0.430729,0.762737 -0.07421,0.243736 -0.223553,0.359251 -0.464474,0.359251 -0.194777,0 -0.281821,-0.05383 -0.588983,-0.36423 z m -4.429777,-1.36354 c -0.14038,-0.06113 -0.585362,-0.611647 -1.626998,-2.012843 -0.788573,-1.060783 -1.477788,-2.016939 -1.531592,-2.124789 -0.153896,-0.308491 -0.08597,-0.824267 0.146353,-1.111313 0.283995,-0.350884 0.486483,-0.475024 0.828407,-0.507881 0.468976,-0.04506 0.698122,0.1 1.689668,1.06963 0.488552,0.477754 0.914062,0.868642 0.945579,0.868642 0.03152,0 1.900745,-1.843641 4.153837,-4.09698 2.926115,-2.9264333 4.156407,-4.1167544 4.306095,-4.1661879 0.442584,-0.1461633 0.982433,0.053431 1.311528,0.4848954 0.157001,0.2058397 0.180622,0.2916695 0.180622,0.6562924 0,0.3568174 -0.02484,0.4517062 -0.166303,0.6351702 -0.478083,0.6200368 -9.173207,10.1899369 -9.34169,10.2815099 -0.237399,0.129031 -0.629982,0.139488 -0.895506,0.02386 z M 9.0888885,16.351366 c -0.097514,-0.09752 -0.154699,-0.226711 -0.154699,-0.349511 0,-0.122799 0.057182,-0.251993 0.154699,-0.349508 0.1371503,-0.137152 0.2091251,-0.154704 0.6344087,-0.154704 0.263839,0 0.5359228,0.03009 0.6046318,0.06686 0.163617,0.08756 0.260094,0.350951 0.210787,0.575449 -0.05615,0.255642 -0.312007,0.366114 -0.8479469,0.366114 -0.3907471,0 -0.4667007,-0.01954 -0.6018806,-0.1547 z m 12.2901475,0 c -0.09752,-0.09752 -0.154701,-0.226711 -0.154701,-0.349511 0,-0.122799 0.05718,-0.251993 0.154701,-0.349508 0.138757,-0.138757 0.207258,-0.154704 0.664641,-0.154704 0.457385,0 0.525887,0.01594 0.664644,0.154704 0.08508,0.08508 0.154312,0.205622 0.153839,0.267862 -0.0033,0.433611 -0.232305,0.585858 -0.881244,0.585858 -0.390748,0 -0.466701,-0.01954 -0.60188,-0.154701 z M 11.181219,11.972845 c -0.39349,-0.412532 -0.43748,-0.577687 -0.225611,-0.847034 0.0992,-0.126113 0.186907,-0.166066 0.364554,-0.166066 0.199954,0 0.283503,0.0502 0.575267,0.345634 0.287453,0.291068 0.341341,0.3819 0.341341,0.575358 0,0.280545 -0.19685,0.465588 -0.495296,0.465588 -0.166973,0 -0.268698,-0.06781 -0.560255,-0.37348 z m 4.385529,-1.454036 c -0.264418,-0.246342 -0.270656,-1.12577 -0.0095,-1.3395587 0.190195,-0.1557013 0.52741,-0.1421046 0.68555,0.027638 0.106718,0.1145507 0.128509,0.2219025 0.128509,0.6331293 0,0.4417244 -0.0167,0.5118954 -0.154703,0.6498934 -0.189217,0.189217 -0.464624,0.201464 -0.649853,0.0289 z"
   id="path1" /></svg>
