<?xml version="1.0" encoding="UTF-8" standalone="no"?>
<svg
   viewBox="0 0 32 32"
   xml:space="preserve"
   version="1.1"
   id="svg929"
   sodipodi:docname="snap_on.svg"
   inkscape:version="1.2.2 (b0a8486541, 2022-12-01)"
   width="32"
   height="32"
   inkscape:export-filename="gizmo_position_on.png"
   inkscape:export-xdpi="192"
   inkscape:export-ydpi="192"
   xmlns:inkscape="http://www.inkscape.org/namespaces/inkscape"
   xmlns:sodipodi="http://sodipodi.sourceforge.net/DTD/sodipodi-0.dtd"
   xmlns="http://www.w3.org/2000/svg"
   xmlns:svg="http://www.w3.org/2000/svg"><defs
   id="defs933"><inkscape:path-effect
     effect="fillet_chamfer"
     id="path-effect3"
     is_visible="true"
     lpeversion="1"
     nodesatellites_param="F,0,0,1,0,0,0,1 @ F,0,0,1,0,0,0,1 @ F,0,0,1,0,0,0,1 @ F,0,0,1,0,0,0,1 @ F,0,0,1,0,0,0,1 @ F,0,0,1,0,0,0,1 @ F,0,0,1,0,0,0,1 @ F,0,0,1,0,0,0,1 @ F,0,0,1,0,0,0,1 @ F,0,0,1,0,0,0,1"
     radius="0"
     unit="px"
     method="auto"
     mode="F"
     chamfer_steps="1"
     flexible="false"
     use_knot_distance="true"
     apply_no_radius="true"
     apply_with_radius="true"
     only_selected="false"
     hide_knots="false" /><inkscape:path-effect
     effect="fillet_chamfer"
     id="path-effect23"
     is_visible="true"
     lpeversion="1"
     nodesatellites_param="F,0,0,1,0,2,0,1 @ F,0,0,1,0,2,0,1 @ F,0,0,1,0,0,0,1 @ F,0,0,1,0,0,0,1 @ F,0,0,1,0,0,0,1 @ F,0,0,1,0,0,0,1 @ F,0,0,1,0,2,0,1 @ F,0,0,1,0,2,0,1 @ F,0,0,1,0,0,0,1 @ F,0,0,1,0,0,0,1 @ F,0,0,1,0,0,0,1 @ F,0,0,1,0,0,0,1 | F,0,0,1,0,0,0,1 @ F,0,0,1,0,0,0,1 @ F,0,0,1,0,0,0,1 @ F,0,0,1,0,0,0,1 | F,0,0,1,0,0,0,1 @ F,0,0,1,0,0,0,1 @ F,0,0,1,0,0,0,1 @ F,0,0,1,0,0,0,1 | F,0,0,1,0,0,0,1 @ F,0,0,1,0,0,0,1 @ F,0,0,1,0,0,0,1 @ F,0,0,1,0,0,0,1 @ F,0,0,1,0,0,0,1 @ F,0,0,1,0,0,0,1 @ F,0,0,1,0,0,0,1 @ F,0,0,1,0,0,0,1 | F,0,0,1,0,0,0,1 @ F,0,0,1,0,0,0,1 @ F,0,0,1,0,0,0,1 @ F,0,0,1,0,0,0,1 | F,0,0,1,0,0,0,1 @ F,0,0,1,0,0,0,1 @ F,0,0,1,0,0,0,1 @ F,0,0,1,0,0,0,1 | F,0,0,1,0,0,0,1 @ F,0,0,1,0,0,0,1 @ F,0,0,1,0,0,0,1 @ F,0,0,1,0,0,0,1 | F,0,0,1,0,0,0,1 @ F,0,0,1,0,0,0,1 @ F,0,0,1,0,0,0,1 @ F,0,0,1,0,0,0,1"
     radius="0"
     unit="px"
     method="auto"
     mode="F"
     chamfer_steps="1"
     flexible="false"
     use_knot_distance="true"
     apply_no_radius="true"
     apply_with_radius="true"
     only_selected="false"
     hide_knots="false" /></defs><sodipodi:namedview
   id="namedview931"
   pagecolor="#000000"
   bordercolor="#ffffff"
   borderopacity="1"
   inkscape:pageshadow="0"
   inkscape:pageopacity="0"
   inkscape:pagecheckerboard="false"
   showgrid="true"
   showguides="true"
   inkscape:guide-bbox="true"
   inkscape:zoom="10.498887"
   inkscape:cx="18.287653"
   inkscape:cy="17.001802"
   inkscape:window-width="1870"
   inkscape:window-height="1014"
   inkscape:window-x="50"
   inkscape:window-y="29"
   inkscape:window-maximized="1"
   inkscape:current-layer="svg929"
   inkscape:showpageshadow="2"
   inkscape:deskcolor="#d1d1d1"
   inkscape:lockguides="true"
   guidecolor="#e50000"
   guideopacity="0.4"
   guidehicolor="#ff0000"
   guidehiopacity="0.6"><inkscape:grid
     id="grid1"
     units="px"
     originx="0"
     originy="0"
     spacingx="1"
     spacingy="1"
     empcolor="#0099e5"
     empopacity="0.4"
     color="#0099e5"
     opacity="0.14901961"
     empspacing="8"
     enabled="true"
     visible="true" /><sodipodi:guide
     position="16,26"
     orientation="0,-1"
     id="guide3"
     inkscape:locked="true" /><sodipodi:guide
     position="16,6"
     orientation="0,-1"
     id="guide4"
     inkscape:locked="true" /><sodipodi:guide
     position="6,16"
     orientation="1,0"
     id="guide5"
     inkscape:locked="true" /><sodipodi:guide
     position="26,16"
     orientation="1,0"
     id="guide6"
     inkscape:locked="true" /></sodipodi:namedview>
    
<g
   fill="#ffffff"
   id="g451"
   transform="matrix(0.01710478,0,0,0.01710478,2.3161821,2.3161693)"><g
     enable-background="new"
     transform="matrix(100,0,0,100,-11000.361,-15698.671)"
     id="g449"><path
       d="M 114.49219,166.99219 A 0.50005,0.50005 0 0 0 114,167.5 v 1.5 h -2.5 a 0.50005,0.50005 0 0 0 -0.5,0.5 v 2 a 0.50005,0.50005 0 1 0 1,0 V 170 h 2.5 a 0.50005,0.50005 0 0 0 0.5,-0.5 v -2 a 0.50005,0.50005 0 0 0 -0.50781,-0.50781 z"
       opacity="0.6"
       id="path445" /><path
       d="m 118.89062,157.9668 c -1.59478,-0.0195 -3.16997,0.53887 -4.2539,1.6914 l -0.74024,0.73828 c -0.19519,0.19527 -0.19519,0.51177 0,0.70704 l 2,2 c 0.19527,0.19519 0.51177,0.19519 0.70704,0 l 0.5,-0.5 c 0.5849,-0.58491 1.58165,-0.89809 2.3457,-0.69336 0.80156,0.21477 1.42585,0.83907 1.64062,1.64062 0.20473,0.76404 -0.10844,1.76078 -0.69336,2.3457 l -0.5,0.5 c -0.19519,0.19527 -0.19519,0.51177 0,0.70704 l 2,2 c 0.19527,0.19519 0.51177,0.19519 0.70704,0 l 0.75,-0.75 c 2.22378,-2.22379 2.21818,-6.29752 -0.0977,-8.61329 -1.15793,-1.15796 -2.77045,-1.75392 -4.36524,-1.77343 z m -6.14848,3.7832 c -0.12989,0.002 -0.25387,0.0546 -0.34571,0.14648 l -1.25,1.25 c -0.19519,0.19527 -0.19519,0.51177 0,0.70704 l 2,2 c 0.19527,0.19519 0.51177,0.19519 0.70704,0 l 1.25,-1.25 c 0.19519,-0.19527 0.19519,-0.51177 0,-0.70704 l -2,-2 c -0.0957,-0.0957 -0.226,-0.14854 -0.36128,-0.14648 z m 6.00019,6 c -0.12989,0.002 -0.25387,0.0546 -0.34571,0.14648 l -1.25,1.25 c -0.19519,0.19527 -0.19519,0.51177 0,0.70704 l 2,2 c 0.19527,0.19519 0.51177,0.19519 0.70704,0 l 1.25,-1.25 c 0.19519,-0.19527 0.19519,-0.51177 0,-0.70704 l -2,-2 c -0.0957,-0.0957 -0.22612,-0.14859 -0.36147,-0.14648 z"
       id="path447" /></g></g></svg>
