<?xml version="1.0" encoding="UTF-8" standalone="no"?>
<svg
   viewBox="0 0 32 32"
   xml:space="preserve"
   version="1.1"
   id="svg929"
   sodipodi:docname="snap_off.svg"
   inkscape:version="1.2.2 (b0a8486541, 2022-12-01)"
   width="32"
   height="32"
   inkscape:export-filename="gizmo_position_on.png"
   inkscape:export-xdpi="192"
   inkscape:export-ydpi="192"
   xmlns:inkscape="http://www.inkscape.org/namespaces/inkscape"
   xmlns:sodipodi="http://sodipodi.sourceforge.net/DTD/sodipodi-0.dtd"
   xmlns="http://www.w3.org/2000/svg"
   xmlns:svg="http://www.w3.org/2000/svg"><defs
   id="defs933"><inkscape:path-effect
     effect="fillet_chamfer"
     id="path-effect3"
     is_visible="true"
     lpeversion="1"
     nodesatellites_param="F,0,0,1,0,0,0,1 @ F,0,0,1,0,0,0,1 @ F,0,0,1,0,0,0,1 @ F,0,0,1,0,0,0,1 @ F,0,0,1,0,0,0,1 @ F,0,0,1,0,0,0,1 @ F,0,0,1,0,0,0,1 @ F,0,0,1,0,0,0,1 @ F,0,0,1,0,0,0,1 @ F,0,0,1,0,0,0,1"
     radius="0"
     unit="px"
     method="auto"
     mode="F"
     chamfer_steps="1"
     flexible="false"
     use_knot_distance="true"
     apply_no_radius="true"
     apply_with_radius="true"
     only_selected="false"
     hide_knots="false" /><inkscape:path-effect
     effect="fillet_chamfer"
     id="path-effect23"
     is_visible="true"
     lpeversion="1"
     nodesatellites_param="F,0,0,1,0,2,0,1 @ F,0,0,1,0,2,0,1 @ F,0,0,1,0,0,0,1 @ F,0,0,1,0,0,0,1 @ F,0,0,1,0,0,0,1 @ F,0,0,1,0,0,0,1 @ F,0,0,1,0,2,0,1 @ F,0,0,1,0,2,0,1 @ F,0,0,1,0,0,0,1 @ F,0,0,1,0,0,0,1 @ F,0,0,1,0,0,0,1 @ F,0,0,1,0,0,0,1 | F,0,0,1,0,0,0,1 @ F,0,0,1,0,0,0,1 @ F,0,0,1,0,0,0,1 @ F,0,0,1,0,0,0,1 | F,0,0,1,0,0,0,1 @ F,0,0,1,0,0,0,1 @ F,0,0,1,0,0,0,1 @ F,0,0,1,0,0,0,1 | F,0,0,1,0,0,0,1 @ F,0,0,1,0,0,0,1 @ F,0,0,1,0,0,0,1 @ F,0,0,1,0,0,0,1 @ F,0,0,1,0,0,0,1 @ F,0,0,1,0,0,0,1 @ F,0,0,1,0,0,0,1 @ F,0,0,1,0,0,0,1 | F,0,0,1,0,0,0,1 @ F,0,0,1,0,0,0,1 @ F,0,0,1,0,0,0,1 @ F,0,0,1,0,0,0,1 | F,0,0,1,0,0,0,1 @ F,0,0,1,0,0,0,1 @ F,0,0,1,0,0,0,1 @ F,0,0,1,0,0,0,1 | F,0,0,1,0,0,0,1 @ F,0,0,1,0,0,0,1 @ F,0,0,1,0,0,0,1 @ F,0,0,1,0,0,0,1 | F,0,0,1,0,0,0,1 @ F,0,0,1,0,0,0,1 @ F,0,0,1,0,0,0,1 @ F,0,0,1,0,0,0,1"
     radius="0"
     unit="px"
     method="auto"
     mode="F"
     chamfer_steps="1"
     flexible="false"
     use_knot_distance="true"
     apply_no_radius="true"
     apply_with_radius="true"
     only_selected="false"
     hide_knots="false" /></defs><sodipodi:namedview
   id="namedview931"
   pagecolor="#000000"
   bordercolor="#ffffff"
   borderopacity="1"
   inkscape:pageshadow="0"
   inkscape:pageopacity="0"
   inkscape:pagecheckerboard="false"
   showgrid="true"
   showguides="true"
   inkscape:guide-bbox="true"
   inkscape:zoom="10.498887"
   inkscape:cx="18.287653"
   inkscape:cy="17.001802"
   inkscape:window-width="1870"
   inkscape:window-height="1014"
   inkscape:window-x="50"
   inkscape:window-y="29"
   inkscape:window-maximized="1"
   inkscape:current-layer="svg929"
   inkscape:showpageshadow="2"
   inkscape:deskcolor="#d1d1d1"
   inkscape:lockguides="true"
   guidecolor="#e50000"
   guideopacity="0.4"
   guidehicolor="#ff0000"
   guidehiopacity="0.6"><inkscape:grid
     id="grid1"
     units="px"
     originx="0"
     originy="0"
     spacingx="1"
     spacingy="1"
     empcolor="#0099e5"
     empopacity="0.4"
     color="#0099e5"
     opacity="0.14901961"
     empspacing="8"
     enabled="true"
     visible="true" /><sodipodi:guide
     position="16,26"
     orientation="0,-1"
     id="guide3"
     inkscape:locked="true" /><sodipodi:guide
     position="16,6"
     orientation="0,-1"
     id="guide4"
     inkscape:locked="true" /><sodipodi:guide
     position="6,16"
     orientation="1,0"
     id="guide5"
     inkscape:locked="true" /><sodipodi:guide
     position="26,16"
     orientation="1,0"
     id="guide6"
     inkscape:locked="true" /></sodipodi:namedview>
    
<g
   fill="#ffffff"
   id="g606"
   transform="matrix(0.01710478,0,0,0.01710478,2.3161816,2.3161652)"><path
     d="m 97.917969,157.99219 c -1.58517,-0.0121 -3.159728,0.54254 -4.271485,1.65429 l -3.5,3.5 a 0.50005,0.50005 0 0 0 0,0.70704 l 2,2 a 0.50005,0.50005 0 0 0 0.707032,0 l 3.25,-3.25 c 0.584908,-0.58491 1.581654,-0.89809 2.345703,-0.69336 0.801559,0.21477 1.425851,0.83907 1.640621,1.64062 0.20473,0.76404 -0.108435,1.76078 -0.693356,2.3457 l -3.25,3.25 a 0.50005,0.50005 0 0 0 0,0.70704 l 2,2 a 0.50005,0.50005 0 0 0 0.707032,0 l 3.474604,-3.47657 a 0.50005,0.50005 0 0 0 0.0254,-0.0234 0.50005,0.50005 0 0 0 0.12109,-0.18946 c 2.06467,-2.25524 2.04105,-6.1641 -0.21875,-8.42383 -1.15788,-1.15791 -2.752722,-1.73596 -4.337891,-1.74804 z m -0.0078,1.0332 c 1.340871,0.01 2.694311,0.47748 3.638671,1.42188 1.8888,1.88873 1.87387,5.423 0.0977,7.19921 L 98.5,170.79297 97.207031,169.5 l 2.896489,-2.89648 c 0.84012,-0.84012 1.27,-2.1299 0.95312,-3.3125 -0.30683,-1.14511 -1.202555,-2.04084 -2.347656,-2.34766 -1.182591,-0.31687 -2.472368,0.11299 -3.3125,0.95312 L 92.5,164.79297 91.207031,163.5 l 3.146485,-3.14648 c 0.888243,-0.88825 2.21577,-1.33772 3.55664,-1.32813 z"
     opacity="0.6"
     transform="matrix(100,0,0,100,-8899.4138,-15699.595)"
     id="path604" /></g></svg>
