<?xml version="1.0" encoding="UTF-8" standalone="no"?>
<svg
   width="25"
   height="25"
   viewBox="0 0 6.6145832 6.6145835"
   version="1.1"
   id="svg1468"
   inkscape:version="1.2.2 (b0a8486541, 2022-12-01)"
   sodipodi:docname="alpha.svg"
   xmlns:inkscape="http://www.inkscape.org/namespaces/inkscape"
   xmlns:sodipodi="http://sodipodi.sourceforge.net/DTD/sodipodi-0.dtd"
   xmlns="http://www.w3.org/2000/svg"
   xmlns:svg="http://www.w3.org/2000/svg"
   xmlns:rdf="http://www.w3.org/1999/02/22-rdf-syntax-ns#"
   xmlns:cc="http://creativecommons.org/ns#"
   xmlns:dc="http://purl.org/dc/elements/1.1/">
  <defs
     id="defs1462" />
  <sodipodi:namedview
     id="base"
     pagecolor="#000000"
     bordercolor="#666666"
     borderopacity="1.0"
     inkscape:pageopacity="0.0"
     inkscape:pageshadow="2"
     inkscape:zoom="11.302987"
     inkscape:cx="9.3780524"
     inkscape:cy="12.607287"
     inkscape:document-units="mm"
     inkscape:current-layer="layer1"
     showgrid="true"
     units="px"
     inkscape:window-width="1870"
     inkscape:window-height="1014"
     inkscape:window-x="50"
     inkscape:window-y="29"
     inkscape:window-maximized="1"
     inkscape:document-rotation="0"
     inkscape:snap-object-midpoints="true"
     inkscape:snap-global="true"
     inkscape:showpageshadow="2"
     inkscape:pagecheckerboard="0"
     inkscape:deskcolor="#d1d1d1">
    <inkscape:grid
       id="grid1"
       units="px"
       originx="0"
       originy="0"
       spacingx="0.26458333"
       spacingy="0.26458331"
       empcolor="#0099e5"
       empopacity="0.30196078"
       color="#0099e5"
       opacity="0.14901961"
       empspacing="5"
       enabled="true"
       visible="true" />
  </sodipodi:namedview>
  <metadata
     id="metadata1465">
    <rdf:RDF>
      <cc:Work
         rdf:about="">
        <dc:format>image/svg+xml</dc:format>
        <dc:type
           rdf:resource="http://purl.org/dc/dcmitype/StillImage" />
      </cc:Work>
    </rdf:RDF>
  </metadata>
  <g
     inkscape:label="Layer 1"
     inkscape:groupmode="layer"
     id="layer1"
     transform="translate(0,-290.3854)">
    <g
       id="g1"
       transform="matrix(0.00332233,0,0,0.00332233,0.64954866,291.03481)">
      <path
         id="path1"
         d="m 237.51602,-4.9992966 c -0.005,1.27e-4 -0.0101,-6.734e-4 -0.0152,-7.031e-4 H 237.5 a 0.50005,0.50005 0 0 1 -1.8e-4,-3.9e-5 c -0.0818,-6.425e-4 -0.16046,-0.024408 -0.2323,-0.062285 a 0.50005,0.50005 0 0 1 -0.0309,-0.018125 C 237.10011,-5.1650832 237.00007,-5.3103426 237,-5.4999997 V -18.5 c 1e-5,-0.08807 0.0248,-0.169581 0.0647,-0.241445 a 0.50005,0.50005 0 0 1 0.007,-0.01367 c 0.0425,-0.07113 0.10161,-0.130218 0.17273,-0.172734 a 0.50005,0.50005 0 0 1 0.0137,-0.0074 c 0.0719,-0.03998 0.15338,-0.06472 0.24144,-0.06473 h 13 c 0.18966,7.3e-5 0.33492,0.100107 0.41955,0.236582 a 0.50005,0.50005 0 0 1 0.0181,0.03094 c 0.0379,0.07184 0.0616,0.15047 0.0623,0.232305 A 0.50005,0.50005 0 0 1 251,-18.5 v 8.21e-4 c 4e-5,0.0075 3e-4,0.01488 0,0.02236 v 12.9768163 a 0.50005,0.50005 0 0 1 -0.5,0.5 h -12.97682 c -0.002,9.44e-5 -0.005,6.435e-4 -0.007,7.031e-4 z m 1.19101,-1.0007031 H 250 V -17.292968 Z"
         fill="#ffffff"
         transform="matrix(100,0,0,-100,-23600.043,-399.957)" />
    </g>
  </g>
</svg>
