<?xml version="1.0" encoding="UTF-8" standalone="no"?>
<svg
   viewBox="0 0 20 20"
   xml:space="preserve"
   version="1.1"
   id="svg3"
   sodipodi:docname="color_background.svg"
   inkscape:version="1.4 (e7c3feb1, 2024-10-09)"
   xmlns:inkscape="http://www.inkscape.org/namespaces/inkscape"
   xmlns:sodipodi="http://sodipodi.sourceforge.net/DTD/sodipodi-0.dtd"
   xmlns="http://www.w3.org/2000/svg"
   xmlns:svg="http://www.w3.org/2000/svg"><defs
   id="defs3">
        
        
        
    </defs><sodipodi:namedview
   id="namedview3"
   pagecolor="#000000"
   bordercolor="#000000"
   borderopacity="0.25"
   inkscape:showpageshadow="2"
   inkscape:pageopacity="0.0"
   inkscape:pagecheckerboard="0"
   inkscape:deskcolor="#d1d1d1"
   showgrid="true"
   inkscape:zoom="15.910904"
   inkscape:cx="2.1683244"
   inkscape:cy="12.884246"
   inkscape:current-layer="svg3"><inkscape:grid
     id="grid3"
     units="px"
     originx="0"
     originy="0"
     spacingx="1"
     spacingy="1"
     empcolor="#0099e5"
     empopacity="0.30196078"
     color="#0099e5"
     opacity="0.14901961"
     empspacing="5"
     enabled="true"
     visible="true" /></sodipodi:namedview>
    <path
   id="rect6"
   style="fill:#ffffff;stroke-width:3;paint-order:fill markers stroke"
   d="M 3 1 C 1.892 1 1 1.892 1 3 L 1 17 C 1 18.108 1.892 19 3 19 L 17 19 C 18.108 19 19 18.108 19 17 L 19 3 C 19 1.892 18.108 1 17 1 L 3 1 z M 3.5039062 3 L 8.5039062 3 A 0.5 0.5 0 0 1 9.0039062 3.5 L 8.9960938 14 C 8.9960936 15.525 7.7454687 17 5.9804688 17 C 4.2154688 17 2.9960938 15.517 2.9960938 14 L 3.0039062 3.5 A 0.5 0.5 0 0 1 3.5039062 3 z M 12.490234 4 A 0.5 0.5 0 0 1 12.849609 4.1464844 L 15.849609 7.1464844 A 0.5 0.5 0 0 1 15.849609 7.8535156 L 10.849609 12.853516 A 0.5 0.5 0 0 1 9.9960938 12.5 L 9.9960938 6.5 A 0.5 0.5 0 0 1 10.142578 6.1464844 L 12.142578 4.1464844 A 0.502 0.502 0 0 1 12.490234 4 z M 14.496094 11 L 16.503906 11 A 0.5 0.5 0 0 1 17.003906 11.5 L 17.003906 16.5 A 0.5 0.5 0 0 1 16.503906 17 L 9.7460938 17 A 0.5 0.5 0 0 1 9.2460938 16.5 L 9.2460938 16.25 A 0.5 0.5 0 0 1 9.3925781 15.896484 L 14.142578 11.146484 A 0.5 0.5 0 0 1 14.496094 11 z M 6.0039062 13 C 5.4579063 13 5.0039062 13.454 5.0039062 14 C 5.0039063 14.546 5.4579062 15 6.0039062 15 C 6.5499064 15 7.0039062 14.546 7.0039062 14 C 7.0039063 13.454 6.5499063 13 6.0039062 13 z " />
</svg>
