<?xml version="1.0" encoding="UTF-8" standalone="no"?>
<svg
   viewBox="0 0 20 20"
   xml:space="preserve"
   version="1.1"
   id="svg6"
   sodipodi:docname="filter.svg"
   inkscape:version="1.1.2 (0a00cf5339, 2022-02-04)"
   xmlns:inkscape="http://www.inkscape.org/namespaces/inkscape"
   xmlns:sodipodi="http://sodipodi.sourceforge.net/DTD/sodipodi-0.dtd"
   xmlns="http://www.w3.org/2000/svg"
   xmlns:svg="http://www.w3.org/2000/svg"><defs
   id="defs10" /><sodipodi:namedview
   id="namedview8"
   pagecolor="#505050"
   bordercolor="#ffffff"
   borderopacity="1"
   inkscape:pageshadow="0"
   inkscape:pageopacity="0"
   inkscape:pagecheckerboard="1"
   showgrid="false"
   inkscape:zoom="26.545623"
   inkscape:cx="3.2020345"
   inkscape:cy="11.037601"
   inkscape:window-width="1920"
   inkscape:window-height="1026"
   inkscape:window-x="0"
   inkscape:window-y="0"
   inkscape:window-maximized="1"
   inkscape:current-layer="svg6" />
    <g
   id="g826"
   transform="matrix(0.75355767,0,0,0.75355767,2.4644233,2.4644233)"><path
     style="fill:#ffffff;fill-opacity:1;stroke:none;stroke-width:1px;stroke-linecap:butt;stroke-linejoin:miter;stroke-opacity:1"
     d="M 3.3902399,3.4740253 16,4.073 16.132825,5.2824625 11.601106,9.4731409 11.353825,13.644913 8.8244457,16.20173 8.3891074,9.4598113 3.6473517,4.7080847 Z"
     id="path1172" /><g
     fill="#ffffff"
     id="g4">
        <path
   d="m 363.5,431 a 0.5,0.5 0 0 0 -0.5,0.5 v 1 a 0.5,0.5 0 0 0 0.146,0.354 l 4.854,4.853 v 3.793 a 0.5,0.5 0 0 0 0.146,0.354 l 3,3 A 0.5,0.5 0 0 0 372,444.5 v -6.793 l 4.854,-4.853 A 0.5,0.5 0 0 0 377,432.5 v -1 a 0.5,0.5 0 0 0 -0.5,-0.5 z m 0.5,1 h 12 v 0.293 l -4.854,4.853 A 0.5,0.5 0 0 0 371,437.5 v 5.793 l -2,-2 V 437.5 a 0.5,0.5 0 0 0 -0.146,-0.354 L 364,432.293 Z"
   fill="#ffffff"
   transform="matrix(-1,0,0,1,380,-427.927)"
   id="path2" />
    </g></g>
</svg>
