<?xml version="1.0" encoding="UTF-8" standalone="no"?>
<svg
   viewBox="0 0 16 16"
   version="1.1"
   id="svg876"
   sodipodi:docname="graph.svg"
   inkscape:version="1.1.2 (0a00cf5339, 2022-02-04)"
   xmlns:inkscape="http://www.inkscape.org/namespaces/inkscape"
   xmlns:sodipodi="http://sodipodi.sourceforge.net/DTD/sodipodi-0.dtd"
   xmlns="http://www.w3.org/2000/svg"
   xmlns:svg="http://www.w3.org/2000/svg">
  <defs
     id="defs880" />
  <sodipodi:namedview
     id="namedview878"
     pagecolor="#ff54ff"
     bordercolor="#666666"
     borderopacity="1.0"
     inkscape:pageshadow="2"
     inkscape:pageopacity="0"
     inkscape:pagecheckerboard="0"
     showgrid="false"
     inkscape:zoom="32"
     inkscape:cx="10.15625"
     inkscape:cy="7.8125"
     inkscape:window-width="2560"
     inkscape:window-height="1369"
     inkscape:window-x="0"
     inkscape:window-y="0"
     inkscape:window-maximized="1"
     inkscape:current-layer="svg876" />
  <path
     d="M 1.589568,1.589568 H 14.410432 V 14.410432 H 1.589568 Z"
     opacity="0"
     id="path5"
     style="fill:#ffffff;stroke-width:0.801304" />
  <path
     d="m 12.607498,2.4706891 c -1.14836,0 -2.062552,0.4807543 -2.6668399,1.1330943 C 9.3363699,4.2561234 8.9845061,5.0294531 8.6463647,5.7275515 8.3082224,6.4256508 7.9851238,7.0473954 7.5977831,7.4475386 7.2104423,7.8476817 6.8039632,8.0798171 5.99674,8.0798171 H 2.390872 v 1.602608 H 5.99674 c 1.1835164,0 2.1221951,-0.4690048 2.7529176,-1.1205732 C 9.38038,7.9102836 9.748249,7.1297462 10.089338,6.4255626 c 0.341088,-0.7041827 0.656717,-1.333135 1.02667,-1.7325065 0.369954,-0.3993716 0.736753,-0.619759 1.49149,-0.619759 h 1.00163 v -1.602608 z"
     id="path7"
     style="fill:#ffffff;stroke-width:0.801304" />
  <path
     d="M 2.390872,3.1924901 V 4.1534299 H 2.99185 c 0.5179861,0 1.0432601,0.3044955 1.5071398,0.835736 0.4638805,0.5312325 0.838862,1.2711647 1.0329314,1.9954313 0.1658843,0.6197766 1.095522,0.3709396 0.9296376,-0.248837 C 6.2309371,5.8750716 5.8054287,5.0231893 5.2236066,4.356889 4.6417854,3.6905807 3.8761459,3.1924901 2.99185,3.1924901 Z M 13.00815,10.404226 c -1.535066,0 -2.349544,0.725196 -2.851516,1.338114 C 9.9056484,12.048798 9.7112544,12.314631 9.5165303,12.477913 9.321807,12.641194 9.1487606,12.72832 8.801304,12.72832 8.4799723,12.72832 8.227987,12.565327 7.9561783,12.210293 7.6843704,11.855251 7.4436314,11.326215 7.2519074,10.772017 7.0610159,10.12917 6.0963517,10.463475 6.3441806,11.086585 c 0.208928,0.603942 0.469004,1.213655 0.8482556,1.709037 0.3792508,0.495374 0.9285695,0.893638 1.6088678,0.893638 0.5540104,0 1.0069827,-0.203355 1.331855,-0.475774 0.324871,-0.27242 0.54365,-0.587869 0.768438,-0.86234 0.449577,-0.548941 0.837055,-0.98598 2.106553,-0.98598 h 0.600978 v -0.96094 z"
     opacity="0.7"
     id="path9"
     style="fill:#ffffff;stroke-width:0.801304;opacity:1" />
</svg>
