<?xml version="1.0" encoding="UTF-8" standalone="no"?>
<!-- Created with Inkscape (http://www.inkscape.org/) -->

<svg
   width="20"
   height="20"
   viewBox="0 0 5.2916669 5.2916668"
   version="1.1"
   id="svg1500"
   xmlns="http://www.w3.org/2000/svg"
   xmlns:svg="http://www.w3.org/2000/svg"
   xmlns:rdf="http://www.w3.org/1999/02/22-rdf-syntax-ns#"
   xmlns:cc="http://creativecommons.org/ns#"
   xmlns:dc="http://purl.org/dc/elements/1.1/">
  <defs
     id="defs1494" />
  <metadata
     id="metadata1497">
    <rdf:RDF>
      <cc:Work
         rdf:about="">
        <dc:format>image/svg+xml</dc:format>
        <dc:type
           rdf:resource="http://purl.org/dc/dcmitype/StillImage" />
      </cc:Work>
    </rdf:RDF>
  </metadata>
  <g
     id="layer1"
     transform="translate(-48.702232,-29.95982)">
    <g
       fill="#ffffff"
       id="g832"
       transform="matrix(0.26458333,0,0,0.26458333,48.702232,29.95982)">
        <path
   fill="#ffffff"
   d="m 49,558 v 3 h 3 v -3 z m 3,3 v 3 h 3 v -3 z m 3,0 h 3 v -3 h -3 z m 3,0 v 3 h 3 v -3 z m 0,3 h -3 v 3 h 3 z m 0,3 v 3 h 3 v -3 z m -3,0 h -3 v 3 h 3 z m -3,0 v -3 h -3 v 3 z"
   transform="translate(-45,-554)"
   id="path828" />

        <path
   fill="#ffffff"
   d="m 48.5,557 a 0.5,0.5 0 0 0 -0.5,0.5 v 13 a 0.5,0.5 0 0 0 0.5,0.5 h 13 a 0.5,0.5 0 0 0 0.5,-0.5 v -13 A 0.5,0.5 0 0 0 61.5,557 Z m 0.5,1 h 12 v 12 H 49 Z"
   transform="translate(-45,-554)"
   id="path830" />

    </g>
  </g>
</svg>
