<?xml version="1.0" encoding="UTF-8" standalone="no"?>
<!-- Created with Inkscape (http://www.inkscape.org/) -->

<svg
   width="20"
   height="20"
   viewBox="0 0 5.2916669 5.2916668"
   version="1.1"
   id="svg1500"
   sodipodi:docname="locked.svg"
   inkscape:version="1.4 (e7c3feb1, 2024-10-09)"
   xmlns:inkscape="http://www.inkscape.org/namespaces/inkscape"
   xmlns:sodipodi="http://sodipodi.sourceforge.net/DTD/sodipodi-0.dtd"
   xmlns="http://www.w3.org/2000/svg"
   xmlns:svg="http://www.w3.org/2000/svg"
   xmlns:rdf="http://www.w3.org/1999/02/22-rdf-syntax-ns#"
   xmlns:cc="http://creativecommons.org/ns#"
   xmlns:dc="http://purl.org/dc/elements/1.1/">
  <sodipodi:namedview
     id="namedview7"
     pagecolor="#000000"
     bordercolor="#ffffff"
     borderopacity="1"
     inkscape:pageshadow="0"
     inkscape:pageopacity="0"
     inkscape:pagecheckerboard="false"
     showgrid="true"
     inkscape:zoom="29.44719"
     inkscape:cx="6.435249"
     inkscape:cy="11.104625"
     inkscape:window-width="1920"
     inkscape:window-height="1026"
     inkscape:window-x="0"
     inkscape:window-y="0"
     inkscape:window-maximized="1"
     inkscape:current-layer="layer1"
     inkscape:showpageshadow="2"
     inkscape:deskcolor="#d1d1d1">
    <inkscape:grid
       id="grid1"
       units="px"
       originx="0"
       originy="0"
       spacingx="0.26458335"
       spacingy="0.26458334"
       empcolor="#0099e5"
       empopacity="0.30196078"
       color="#0099e5"
       opacity="0.14901961"
       empspacing="5"
       enabled="true"
       visible="true" />
  </sodipodi:namedview>
  <defs
     id="defs1494" />
  <metadata
     id="metadata1497">
    <rdf:RDF>
      <cc:Work
         rdf:about="">
        <dc:format>image/svg+xml</dc:format>
        <dc:type
           rdf:resource="http://purl.org/dc/dcmitype/StillImage" />
      </cc:Work>
    </rdf:RDF>
  </metadata>
  <g
     id="layer1"
     transform="translate(-48.702232,-29.95982)"
     style="fill:#ff0000;fill-opacity:1">
    <path
       d="m 51.348064,31.215376 c -0.638965,0.0015 -1.156587,0.519078 -1.158042,1.158043 v 0.363685 h -0.165435 c -0.09137,0 -0.165435,0.07407 -0.165435,0.165434 v 1.654347 c 0,0.09137 0.07407,0.165435 0.165435,0.165435 h 2.646956 c 0.09137,-1e-6 0.165433,-0.07407 0.165433,-0.165435 v -1.654347 c 0,-0.09137 -0.07407,-0.165433 -0.165433,-0.165434 h -0.165436 v -0.363685 c 0,-0.637585 -0.520458,-1.158043 -1.158043,-1.158043 z m 0,0.330869 c 0.458916,0 0.827175,0.368258 0.827175,0.827174 v 0.363685 h -1.654348 v -0.363685 c 0,-0.458916 0.368258,-0.827174 0.827173,-0.827174 z m -0.165434,1.852597 h 0.330869 v 0.661739 H 51.18263 v -0.330869 z"
       fill="#fff"
       id="path835"
       style="fill:#ffffff;fill-opacity:1;stroke-width:0.330869"
       sodipodi:nodetypes="cccsccccccccscssccsscccccc" />
  </g>
</svg>
