<?xml version="1.0" encoding="UTF-8" standalone="no"?>
<svg
   viewBox="0 0 20 20"
   xml:space="preserve"
   version="1.1"
   id="svg4"
   sodipodi:docname="loop2.svg"
   inkscape:version="1.1.2 (0a00cf5339, 2022-02-04)"
   xmlns:inkscape="http://www.inkscape.org/namespaces/inkscape"
   xmlns:sodipodi="http://sodipodi.sourceforge.net/DTD/sodipodi-0.dtd"
   xmlns="http://www.w3.org/2000/svg"
   xmlns:svg="http://www.w3.org/2000/svg"><defs
   id="defs8" /><sodipodi:namedview
   id="namedview6"
   pagecolor="#505050"
   bordercolor="#ffffff"
   borderopacity="1"
   inkscape:pageshadow="0"
   inkscape:pageopacity="0"
   inkscape:pagecheckerboard="1"
   showgrid="false"
   showguides="true"
   inkscape:guide-bbox="true"
   inkscape:zoom="42.884686"
   inkscape:cx="8.3363091"
   inkscape:cy="7.788328"
   inkscape:window-width="1920"
   inkscape:window-height="1085"
   inkscape:window-x="0"
   inkscape:window-y="27"
   inkscape:window-maximized="1"
   inkscape:current-layer="svg4"><sodipodi:guide
     position="7.3919161,15.033192"
     orientation="0,-1"
     id="guide984" /><sodipodi:guide
     position="8.1918876,4.9551885"
     orientation="0,-1"
     id="guide986" /></sodipodi:namedview>
    
<g
   id="g827"
   transform="matrix(0.68577625,0,0,0.68577625,3.1419405,3.1423045)"
   style="stroke:#fffffd;stroke-width:0.555176;stroke-miterlimit:4;stroke-dasharray:none;stroke-opacity:1"><path
     fill="#ffffff"
     d="m 7.49,17.0018 a 0.5,0.5 0 0 1 -0.344,-0.15 l -4,-4 a 0.5,0.5 0 0 1 0,-0.708 l 4,-4.0000004 a 0.5,0.5 0 1 1 0.707,0.707 L 4.707,11.9978 H 12 c 2.215,0 4,-1.785 4,-4.0000004 0,-2.215 -1.785,-4 -4,-4 h -1.5 a 0.5,0.5 0 1 1 0,-1 H 12 c 2.755,0 5,2.244 5,5 C 17,10.7528 14.755,12.9978 12,12.9978 H 4.707 l 3.146,3.146 a 0.5,0.5 0 0 1 -0.363,0.858 z"
     id="path2"
     style="stroke:#fffffd;stroke-width:0.555176;stroke-miterlimit:4;stroke-dasharray:none;stroke-opacity:1" /></g></svg>
