<?xml version="1.0" encoding="UTF-8" standalone="no"?>
<svg
   viewBox="0 0 20 20"
   xml:space="preserve"
   version="1.1"
   id="svg4"
   xmlns="http://www.w3.org/2000/svg"
   xmlns:svg="http://www.w3.org/2000/svg"><defs
   id="defs8" />
    
<path
   d="m 3.7050003,10.005 a 0.75,0.75 0 0 1 0.834,0.656 5.5,5.5 0 0 0 9.5919997,2.97 L 12.927,12.427 A 0.25,0.25 0 0 1 13.104,12 H 16.75 A 0.25,0.25 0 0 1 17,12.25 v 3.646 a 0.25,0.25 0 0 1 -0.427,0.177 l -1.38,-1.38 A 7.002,7.002 0 0 1 3.0500003,10.84 a 0.75,0.75 0 0 1 0.656,-0.834 z M 9.9999998,4.4999998 a 5.487,5.487 0 0 0 -4.130999,1.869 l 1.204,1.2040004 a 0.25,0.25 0 0 1 -0.177,0.427 H 3.2500003 a 0.25,0.25 0 0 1 -0.25,-0.25 V 4.1039998 a 0.25,0.25 0 0 1 0.427,-0.177 l 1.38,1.38 A 7.002,7.002 0 0 1 16.95,9.1600002 a 0.75029727,0.75029727 0 0 1 -1.49,0.178 5.5,5.5 0 0 0 -5.4600002,-4.8380004 z"
   id="path864"
   style="overflow:visible;fill:#ffffff;fill-opacity:1" /></svg>
