<?xml version="1.0" encoding="UTF-8" standalone="no"?>
<svg
   viewBox="0 0 20 20"
   xml:space="preserve"
   version="1.1"
   id="svg4"
   sodipodi:docname="loop3.svg"
   inkscape:version="1.1.2 (0a00cf5339, 2022-02-04)"
   xmlns:inkscape="http://www.inkscape.org/namespaces/inkscape"
   xmlns:sodipodi="http://sodipodi.sourceforge.net/DTD/sodipodi-0.dtd"
   xmlns="http://www.w3.org/2000/svg"
   xmlns:svg="http://www.w3.org/2000/svg"><sodipodi:namedview
   id="namedview848"
   pagecolor="#505050"
   bordercolor="#ffffff"
   borderopacity="1"
   inkscape:pageshadow="0"
   inkscape:pageopacity="0"
   inkscape:pagecheckerboard="1"
   showgrid="false"
   inkscape:zoom="29"
   inkscape:cx="12.241379"
   inkscape:cy="12.310345"
   inkscape:window-width="2560"
   inkscape:window-height="1369"
   inkscape:window-x="0"
   inkscape:window-y="34"
   inkscape:window-maximized="1"
   inkscape:current-layer="svg4" /><defs
   id="defs8" />
    
<path
   d="m 5.2891557,10.003742 a 0.56126027,0.56126027 0 0 1 0.6241215,0.490915 4.1159086,4.1159086 0 0 0 7.1781448,2.222591 l -0.90101,-0.90101 a 0.18708676,0.18708676 0 0 1 0.132457,-0.319544 h 2.728473 a 0.18708676,0.18708676 0 0 1 0.187087,0.187087 v 2.728473 a 0.18708676,0.18708676 0 0 1 -0.319544,0.132457 L 13.886166,13.511993 A 5.2399259,5.2399259 0 0 1 4.7989884,10.628611 0.56126027,0.56126027 0 0 1 5.2899041,10.00449 Z M 9.9999999,5.8840912 A 4.1061801,4.1061801 0 0 0 6.9085791,7.2827518 L 7.8095889,8.1837619 A 0.18708676,0.18708676 0 0 1 7.6771315,8.5033061 H 4.9486579 A 0.18708676,0.18708676 0 0 1 4.7615711,8.3162193 V 5.5877458 A 0.18708676,0.18708676 0 0 1 5.0811153,5.4552884 L 6.1138342,6.4880072 A 5.2399259,5.2399259 0 0 1 15.201012,9.3713886 0.56148273,0.56148273 0 0 1 14.085975,9.5045944 4.1159086,4.1159086 0 0 0 9.9999999,5.8840912 Z"
   id="path864"
   style="overflow:visible;fill:#ffffff;fill-opacity:1;stroke-width:0.748347" /></svg>
