<?xml version="1.0" encoding="UTF-8" standalone="no"?>
<svg
   height="1600"
   viewBox="0 0 1600 1600"
   width="1600"
   version="1.1"
   id="svg1"
   sodipodi:docname="muted.svg"
   inkscape:version="1.4 (e7c3feb1, 2024-10-09)"
   xmlns:inkscape="http://www.inkscape.org/namespaces/inkscape"
   xmlns:sodipodi="http://sodipodi.sourceforge.net/DTD/sodipodi-0.dtd"
   xmlns="http://www.w3.org/2000/svg"
   xmlns:svg="http://www.w3.org/2000/svg">
  <defs
     id="defs1" />
  <sodipodi:namedview
     pagecolor="#303030"
     showgrid="true"
     id="namedview1"
     bordercolor="#000000"
     borderopacity="0.25"
     inkscape:showpageshadow="2"
     inkscape:pageopacity="0.0"
     inkscape:pagecheckerboard="0"
     inkscape:deskcolor="#d1d1d1"
     inkscape:zoom="0.27200306"
     inkscape:cx="604.7726"
     inkscape:cy="926.46016"
     inkscape:current-layer="g1">
    <inkscape:grid
       id="grid5"
       units="px"
       spacingx="100"
       spacingy="100"
       color="#4772b3"
       opacity="0.2"
       visible="true"
       originx="0"
       originy="0" />
  </sodipodi:namedview>
  <g
     fill="#fff"
     id="g1">
    <path
       d="m 221.5,410 c -0.1326,2e-5 -0.25976,0.0527 -0.35352,0.14648 L 218.29297,413 H 216.5 c -0.27613,3e-5 -0.49997,0.22387 -0.5,0.5 v 7 c 3e-5,0.27613 0.22387,0.49997 0.5,0.5 h 1.79297 l 2.85351,2.85352 c 0.0938,0.0938 0.22092,0.14646 0.35352,0.14648 h 1 c 0.27613,-3e-5 0.49997,-0.22387 0.5,-0.5 V 410.78125 410.5 c -3e-5,-0.27613 -0.22387,-0.49997 -0.5,-0.5 z m 0.20703,1 H 222 v 12 h -0.29297 l -2.85351,-2.85352 C 218.75976,420.05271 218.6326,420.00002 218.5,420 H 217 v -6 h 1.5 c 0.1326,-2e-5 0.25976,-0.0527 0.35352,-0.14648 z"
       transform="matrix(100,0,0,100,-21499.98,-40900)"
       id="path1"
       sodipodi:nodetypes="ccccccccccccccccccccccccccc" />
  </g>
</svg>
