<?xml version="1.0" encoding="UTF-8" standalone="no"?>
<!-- Created with Inkscape (http://www.inkscape.org/) -->

<svg
   width="20"
   height="20"
   viewBox="0 0 5.2916669 5.2916668"
   version="1.1"
   id="svg1500"
   inkscape:version="1.1.2 (0a00cf5339, 2022-02-04)"
   sodipodi:docname="muted.svg"
   xmlns:inkscape="http://www.inkscape.org/namespaces/inkscape"
   xmlns:sodipodi="http://sodipodi.sourceforge.net/DTD/sodipodi-0.dtd"
   xmlns="http://www.w3.org/2000/svg"
   xmlns:svg="http://www.w3.org/2000/svg"
   xmlns:rdf="http://www.w3.org/1999/02/22-rdf-syntax-ns#"
   xmlns:cc="http://creativecommons.org/ns#"
   xmlns:dc="http://purl.org/dc/elements/1.1/">
  <defs
     id="defs1494" />
  <sodipodi:namedview
     id="base"
     pagecolor="#ffa384"
     bordercolor="#666666"
     borderopacity="1.0"
     inkscape:pageopacity="0.51764706"
     inkscape:pageshadow="2"
     inkscape:zoom="22.4"
     inkscape:cx="9.9776786"
     inkscape:cy="14.241071"
     inkscape:document-units="mm"
     inkscape:current-layer="layer1"
     showgrid="false"
     fit-margin-top="0"
     fit-margin-left="0"
     fit-margin-right="0"
     fit-margin-bottom="0"
     units="px"
     inkscape:window-width="2560"
     inkscape:window-height="1355"
     inkscape:window-x="1920"
     inkscape:window-y="0"
     inkscape:window-maximized="1"
     inkscape:pagecheckerboard="1"
     showguides="true"
     inkscape:guide-bbox="true">
    <sodipodi:guide
       position="2.7478649,4.4230408"
       orientation="0,-1"
       id="guide967" />
    <sodipodi:guide
       position="3.0360149,0.54345651"
       orientation="0,-1"
       id="guide969" />
    <sodipodi:guide
       position="0.61806081,2.5772106"
       orientation="1,0"
       id="guide971" />
  </sodipodi:namedview>
  <metadata
     id="metadata1497">
    <rdf:RDF>
      <cc:Work
         rdf:about="">
        <dc:format>image/svg+xml</dc:format>
        <dc:type
           rdf:resource="http://purl.org/dc/dcmitype/StillImage" />
      </cc:Work>
    </rdf:RDF>
  </metadata>
  <g
     inkscape:label="Layer 1"
     inkscape:groupmode="layer"
     id="layer1"
     transform="translate(-48.702232,-29.95982)">
    <path
       d="m 50.48299,31.410131 c -0.02546,4e-6 -0.04989,0.01007 -0.06791,0.02814 l -0.548122,0.548123 h -0.344403 c -0.05304,6e-6 -0.09603,0.04301 -0.09604,0.09605 v 1.34461 c 6e-6,0.05304 0.04301,0.09604 0.09604,0.09605 h 0.344405 l 0.548124,0.548127 c 0.01802,0.01802 0.04244,0.02813 0.06791,0.02814 h 0.192087 c 0.05304,-7e-6 0.09603,-0.04301 0.09604,-0.09605 V 31.56021 31.50618 c -6e-6,-0.05304 -0.04301,-0.09604 -0.09604,-0.09605 z m 0.03977,0.192088 h 0.05626 v 2.305049 h -0.05626 l -0.548123,-0.548125 c -0.01802,-0.01802 -0.04244,-0.02814 -0.06791,-0.02815 h -0.288132 v -1.152524 h 0.288132 c 0.02546,-4e-6 0.04989,-0.01007 0.06791,-0.02814 z"
       id="path1"
       sodipodi:nodetypes="ccccccccccccccccccccccccccc"
       style="opacity:1;fill:#ffffff;fill-opacity:1;stroke-width:0.192087" />
  </g>
</svg>
