<?xml version="1.0" encoding="UTF-8" standalone="no"?>
<svg
   width="25"
   height="25"
   viewBox="0 0 6.6145832 6.6145835"
   version="1.1"
   id="svg1468"
   inkscape:version="1.2.2 (b0a8486541, 2022-12-01)"
   sodipodi:docname="pivot.svg"
   xmlns:inkscape="http://www.inkscape.org/namespaces/inkscape"
   xmlns:sodipodi="http://sodipodi.sourceforge.net/DTD/sodipodi-0.dtd"
   xmlns="http://www.w3.org/2000/svg"
   xmlns:svg="http://www.w3.org/2000/svg"
   xmlns:rdf="http://www.w3.org/1999/02/22-rdf-syntax-ns#"
   xmlns:cc="http://creativecommons.org/ns#"
   xmlns:dc="http://purl.org/dc/elements/1.1/">
  <defs
     id="defs1462" />
  <sodipodi:namedview
     id="base"
     pagecolor="#000000"
     bordercolor="#666666"
     borderopacity="1.0"
     inkscape:pageopacity="0.0"
     inkscape:pageshadow="2"
     inkscape:zoom="13.98685"
     inkscape:cx="22.878632"
     inkscape:cy="-0.25023503"
     inkscape:document-units="mm"
     inkscape:current-layer="layer1"
     showgrid="true"
     units="px"
     inkscape:window-width="1870"
     inkscape:window-height="1014"
     inkscape:window-x="50"
     inkscape:window-y="29"
     inkscape:window-maximized="1"
     inkscape:document-rotation="0"
     inkscape:snap-object-midpoints="true"
     inkscape:snap-global="true"
     inkscape:showpageshadow="2"
     inkscape:pagecheckerboard="0"
     inkscape:deskcolor="#d1d1d1">
    <inkscape:grid
       id="grid1"
       units="px"
       originx="0"
       originy="0"
       spacingx="0.26458333"
       spacingy="0.26458331"
       empcolor="#0099e5"
       empopacity="0.30196078"
       color="#0099e5"
       opacity="0.14901961"
       empspacing="5"
       enabled="true"
       visible="true" />
  </sodipodi:namedview>
  <metadata
     id="metadata1465">
    <rdf:RDF>
      <cc:Work
         rdf:about="">
        <dc:format>image/svg+xml</dc:format>
        <dc:type
           rdf:resource="http://purl.org/dc/dcmitype/StillImage" />
      </cc:Work>
    </rdf:RDF>
  </metadata>
  <g
     inkscape:label="Layer 1"
     inkscape:groupmode="layer"
     id="layer1"
     transform="translate(0,-290.3854)">
    <g
       fill="#ffffff"
       id="g474"
       transform="matrix(0.00331537,0,0,0.00331537,0.65499701,291.0404)">
      <g
         enable-background="new"
         transform="matrix(0,-100,-100,0,28600,-60000)"
         id="g472">
        <g
           enable-background="new"
           transform="rotate(90,-175.5,-141.5)"
           id="g468">
          <path
             d="m 237.5,284 c -0.27613,3e-5 -0.49997,0.22387 -0.5,0.5 v 4 c 3e-5,0.27613 0.22387,0.49997 0.5,0.5 h 4 c 0.27613,-3e-5 0.49997,-0.22387 0.5,-0.5 v -4 c -3e-5,-0.27613 -0.22387,-0.49997 -0.5,-0.5 z"
             fill="#ffffff"
             id="path466" />
        </g>
        <path
           d="m -614.5,272 a 0.50005,0.50005 0 0 0 -0.5,0.5 v 3 a 0.50005,0.50005 0 0 0 0.5,0.5 h 0.50781 v 5 H -614.5 a 0.50005,0.50005 0 0 0 -0.5,0.5 v 3 a 0.50005,0.50005 0 0 0 0.5,0.5 h 3 a 0.50005,0.50005 0 0 0 0.5,-0.5 V 284 h 5 v 0.5 a 0.50005,0.50005 0 0 0 0.5,0.5 h 3 a 0.50005,0.50005 0 0 0 0.5,-0.5 v -3 a 0.50005,0.50005 0 0 0 -0.5,-0.5 h -0.49219 v -3.5 a 0.50005,0.50005 0 1 0 -1,0 V 281 H -605.5 a 0.50005,0.50005 0 0 0 -0.5,0.5 v 1.5 h -5 v -1.5 a 0.50005,0.50005 0 0 0 -0.5,-0.5 h -1.49219 v -5 H -611.5 a 0.50005,0.50005 0 0 0 0.5,-0.5 V 274 h 3.5 a 0.50005,0.50005 0 1 0 0,-1 h -3.5 v -0.5 a 0.50005,0.50005 0 0 0 -0.5,-0.5 z m 0.5,1 h 2 v 2 h -1.41406 a 0.50005,0.50005 0 0 0 -0.16016,0 H -614 Z m 0,9 h 2 v 2 h -2 z m 9,0 h 2 v 2 h -2 z"
           opacity="0.6"
           id="path470" />
      </g>
    </g>
  </g>
</svg>
