<?xml version="1.0" encoding="UTF-8" standalone="no"?>
<svg
   style="display:inline;enable-background:new"
   version="1.0"
   id="svg2"
   height="18"
   width="18"
   xmlns="http://www.w3.org/2000/svg"
   xmlns:svg="http://www.w3.org/2000/svg"
   xmlns:rdf="http://www.w3.org/1999/02/22-rdf-syntax-ns#"
   xmlns:cc="http://creativecommons.org/ns#"
   xmlns:dc="http://purl.org/dc/elements/1.1/">
  <metadata
     id="metadata34337">
    <rdf:RDF>
      <cc:Work
         rdf:about="">
        <dc:format>image/svg+xml</dc:format>
        <dc:type
           rdf:resource="http://purl.org/dc/dcmitype/StillImage" />
      </cc:Work>
    </rdf:RDF>
  </metadata>
  <defs
     id="defs4" />
  <g
     id="layer8"
     style="display:inline"
     transform="translate(-510,-346.996)">
    <path
       d="m 517.998,350.48576 c -0.13284,2e-5 -0.26025,0.0528 -0.35418,0.14674 l -1.85696,1.85698 h -2.79817 c -0.27665,3e-5 -0.5009,0.22429 -0.50094,0.50093 v 8.01491 c 4e-5,0.27664 0.22429,0.50089 0.50094,0.50092 h 6.46513 0.004 c 0.0131,-5.4e-4 0.0262,-0.002 0.0391,-0.004 0.004,1e-4 0.008,1e-4 0.0118,0 0.0143,0.002 0.0286,0.004 0.0431,0.004 h 0.006 5.45349 c 0.27665,0 0.5009,-0.22428 0.50094,-0.50092 v -8.01491 c 0,-0.27664 -0.22429,-0.5009 -0.50094,-0.50093 H 523.215 l -1.85696,-1.85698 c -0.094,-0.094 -0.22151,-0.14679 -0.35446,-0.14674 z m 1.5006,2.00176 c 2.22002,-3.7e-4 4.0093,1.78883 4.0094,4.00941 -9e-4,2.20145 -1.76169,3.98198 -3.96245,4.00745 -0.0131,5.5e-4 -0.0262,0.002 -0.0391,0.004 -0.0149,-0.002 -0.03,-0.004 -0.045,-0.004 -9.1e-4,0 -0.004,0 -0.004,0 -2.20233,-0.0228 -3.9654,-1.80392 -3.96634,-4.00745 8e-5,-2.2199 1.7881,-4.00876 4.00744,-4.00941 z m 2.7e-4,1.00383 c -1.65371,0 -3.00363,1.35172 -3.00363,3.00558 0,1.65386 1.34992,3.00559 3.00363,3.00559 1.6537,0 3.00558,-1.35173 3.00558,-3.00559 0,-1.65386 -1.35188,-3.00558 -3.00558,-3.00558 z m 0,1.00185 c 1.11216,0 2.00373,0.89121 2.00373,2.00373 0,1.11251 -0.89157,2.00372 -2.00373,2.00372 -1.11216,0 -2.00178,-0.89121 -2.00178,-2.00372 0,-1.11252 0.88962,-2.00373 2.00178,-2.00373 z"
       id="path944"
       style="fill:#ffffff;stroke-width:1.00186" />
  </g>
</svg>
