<?xml version="1.0" encoding="UTF-8" standalone="no"?>
<!-- Created with Inkscape (http://www.inkscape.org/) -->

<svg
   width="20"
   height="20"
   viewBox="0 0 5.2916669 5.2916668"
   version="1.1"
   id="svg1500"
   inkscape:version="1.1.2 (0a00cf5339, 2022-02-04)"
   sodipodi:docname="unmuted.svg"
   xmlns:inkscape="http://www.inkscape.org/namespaces/inkscape"
   xmlns:sodipodi="http://sodipodi.sourceforge.net/DTD/sodipodi-0.dtd"
   xmlns="http://www.w3.org/2000/svg"
   xmlns:svg="http://www.w3.org/2000/svg"
   xmlns:rdf="http://www.w3.org/1999/02/22-rdf-syntax-ns#"
   xmlns:cc="http://creativecommons.org/ns#"
   xmlns:dc="http://purl.org/dc/elements/1.1/">
  <defs
     id="defs1494" />
  <sodipodi:namedview
     id="base"
     pagecolor="#ffa384"
     bordercolor="#666666"
     borderopacity="1.0"
     inkscape:pageopacity="0.51764706"
     inkscape:pageshadow="2"
     inkscape:zoom="22.4"
     inkscape:cx="7.2544643"
     inkscape:cy="6.9196429"
     inkscape:document-units="mm"
     inkscape:current-layer="layer1"
     showgrid="false"
     fit-margin-top="0"
     fit-margin-left="0"
     fit-margin-right="0"
     fit-margin-bottom="0"
     units="px"
     inkscape:window-width="2560"
     inkscape:window-height="1355"
     inkscape:window-x="1920"
     inkscape:window-y="0"
     inkscape:window-maximized="1"
     inkscape:pagecheckerboard="1"
     showguides="true"
     inkscape:guide-bbox="true">
    <sodipodi:guide
       position="2.7478649,4.4230408"
       orientation="0,-1"
       id="guide967" />
    <sodipodi:guide
       position="3.0360149,0.54345651"
       orientation="0,-1"
       id="guide969" />
    <sodipodi:guide
       position="0.61806081,2.5772106"
       orientation="1,0"
       id="guide971" />
  </sodipodi:namedview>
  <metadata
     id="metadata1497">
    <rdf:RDF>
      <cc:Work
         rdf:about="">
        <dc:format>image/svg+xml</dc:format>
        <dc:type
           rdf:resource="http://purl.org/dc/dcmitype/StillImage" />
      </cc:Work>
    </rdf:RDF>
  </metadata>
  <g
     inkscape:label="Layer 1"
     inkscape:groupmode="layer"
     id="layer1"
     transform="translate(-48.702232,-29.95982)">
    <g
       id="g1138"
       transform="matrix(0.00847793,0,0,0.00847793,50.482053,32.459012)">
      <g
         fill="#ffffff"
         id="g1040"
         transform="matrix(0.26458333,0,0,0.26458333,-161.51945,-179.70232)">
        <path
           d="m 222,431 c -0.1326,2e-5 -0.25976,0.0527 -0.35352,0.14648 L 218.79297,434 H 216.5 c -0.27613,3e-5 -0.49997,0.22387 -0.5,0.5 v 7 c 3e-5,0.27613 0.22387,0.49997 0.5,0.5 h 2.29297 l 2.85351,2.85352 c 0.0938,0.0938 0.22092,0.14646 0.35352,0.14648 h 0.5 c 0.27613,-3e-5 0.49997,-0.22387 0.5,-0.5 V 431.78125 431.5 c -3e-5,-0.27613 -0.22387,-0.49997 -0.5,-0.5 z m 6.4668,2.01562 a 0.50005,0.50005 0 0 0 -0.42188,0.72071 c 1.27607,2.70648 1.27328,5.84072 -0.008,8.54492 a 0.50017783,0.50017783 0 1 0 0.9043,0.42773 c 1.40867,-2.97397 1.41099,-6.42391 0.008,-9.40039 a 0.50005,0.50005 0 0 0 -0.48242,-0.29297 z m -2.86133,0.9375 a 0.50005,0.50005 0 0 0 -0.43359,0.74219 c 1.10286,2.06013 1.1045,4.5334 0.006,6.59571 a 0.50023236,0.50023236 0 1 0 0.88282,0.4707 c 1.25518,-2.35583 1.25221,-5.18378 -0.008,-7.53711 a 0.50005,0.50005 0 0 0 -0.44726,-0.27149 z"
           transform="matrix(100,0,0,100,-21499.98,-43000)"
           id="path1038" />
      </g>
    </g>
  </g>
</svg>
