<?xml version="1.0" encoding="UTF-8" standalone="no"?>
<svg
   style="display:inline;enable-background:new"
   version="1.0"
   id="svg2"
   height="18"
   width="18"
   xmlns="http://www.w3.org/2000/svg"
   xmlns:svg="http://www.w3.org/2000/svg"
   xmlns:rdf="http://www.w3.org/1999/02/22-rdf-syntax-ns#"
   xmlns:cc="http://creativecommons.org/ns#"
   xmlns:dc="http://purl.org/dc/elements/1.1/">
  <metadata
     id="metadata34337">
    <rdf:RDF>
      <cc:Work
         rdf:about="">
        <dc:format>image/svg+xml</dc:format>
        <dc:type
           rdf:resource="http://purl.org/dc/dcmitype/StillImage" />
      </cc:Work>
    </rdf:RDF>
  </metadata>
  <defs
     id="defs4" />
  <g
     id="layer8"
     style="display:inline"
     transform="translate(-510,-346.996)">
    <g
       enable-background="new"
       transform="matrix(0.88295148,0,0,0.88295148,359.18578,-197.61458)"
       id="g1063">
      <path
         d="m 172,-636 h 18 v 18 h -18 z"
         fill="none"
         stroke-width="1.627"
         transform="scale(1,-1)"
         id="path1059" />
      <path
         d="m 184.49609,623.99414 a 0.50005,0.50005 0 0 0 -0.34961,0.85938 L 186.29297,627 h -10.58594 l 2.14649,-2.14648 a 0.50005,0.50005 0 1 0 -0.70704,-0.70704 l -3,3 a 0.50005,0.50005 0 0 0 0,0.70704 l 3,3 a 0.50005,0.50005 0 1 0 0.70704,-0.70704 L 175.70703,628 h 10.58594 l -2.14649,2.14648 a 0.50005,0.50005 0 1 0 0.70704,0.70704 l 3,-3 a 0.50005,0.50005 0 0 0 0,-0.70704 l -3,-3 a 0.50005,0.50005 0 0 0 -0.35743,-0.15234 z"
         fill="#ffffff"
         id="path1061" />
    </g>
  </g>
</svg>
