<?xml version="1.0" encoding="UTF-8" standalone="no"?>
<svg
   style="display:inline;enable-background:new"
   version="1.0"
   id="svg2"
   height="18"
   width="18"
   xmlns="http://www.w3.org/2000/svg"
   xmlns:svg="http://www.w3.org/2000/svg"
   xmlns:rdf="http://www.w3.org/1999/02/22-rdf-syntax-ns#"
   xmlns:cc="http://creativecommons.org/ns#"
   xmlns:dc="http://purl.org/dc/elements/1.1/">
  <metadata
     id="metadata34337">
    <rdf:RDF>
      <cc:Work
         rdf:about="">
        <dc:format>image/svg+xml</dc:format>
        <dc:type
           rdf:resource="http://purl.org/dc/dcmitype/StillImage" />
      </cc:Work>
    </rdf:RDF>
  </metadata>
  <defs
     id="defs4" />
  <g
     id="layer8"
     style="display:inline"
     transform="translate(-510,-346.996)">
    <g
       fill="#ffffff"
       id="g7"
       transform="matrix(0.00983863,0,0,0.00983863,511.12909,348.12509)">
      <path
         d="m 27.492188,598.99219 a 0.50005,0.50005 0 0 0 -0.5,0.5 v 9 a 0.50005,0.50005 0 0 0 0.5,0.5 h 13 a 0.50005,0.50005 0 0 0 0.5,-0.49805 L 41,605 l -1,-0.002 -0.0059,2.99414 H 27.992188 v -8 h 8 v 3.5 c 2.9e-5,0.27613 0.223869,0.49997 0.5,0.5 h 4 c 0.44533,-1.7e-4 0.668305,-0.53852 0.353515,-0.85352 l -4,-4 c -0.09376,-0.0938 -0.22116,-0.14439 -0.353515,-0.14453 v -0.002 h -0.0078 z M 35,610 l -2,0.004 v 1.98828 h -2.507812 c -0.67616,-0.01 -0.67616,1.00956 0,1 h 7 c 0.676159,0.01 0.676159,-1.00956 0,-1 H 35 Z"
         fill-rule="evenodd"
         transform="matrix(100,0,0,100,-2599.609,-59799.222)"
         id="path5" />
    </g>
  </g>
</svg>
