<svg
   inkscape:export-ydpi="96"
   inkscape:export-xdpi="96"
   inkscape:export-filename="blender_icons.png"
   style="display:inline;enable-background:new"
   inkscape:output_extension="org.inkscape.output.svg.inkscape"
   sodipodi:docname="blender_icons.svg"
   version="1.0"
   inkscape:version="1.2 (dc2aeda, 2022-05-15)"
   sodipodi:version="0.32"
   id="svg2"
   height="18"
   width="18"
   xmlns:inkscape="http://www.inkscape.org/namespaces/inkscape"
   xmlns:sodipodi="http://sodipodi.sourceforge.net/DTD/sodipodi-0.dtd"
   xmlns="http://www.w3.org/2000/svg"
   xmlns:svg="http://www.w3.org/2000/svg"
   xmlns:rdf="http://www.w3.org/1999/02/22-rdf-syntax-ns#"
   xmlns:cc="http://creativecommons.org/ns#"
   xmlns:dc="http://purl.org/dc/elements/1.1/">
  <metadata
     id="metadata34337">
    <rdf:RDF>
      <cc:Work
         rdf:about="">
        <dc:format>image/svg+xml</dc:format>
        <dc:type
           rdf:resource="http://purl.org/dc/dcmitype/StillImage" />
        <dc:title />
      </cc:Work>
    </rdf:RDF>
  </metadata>
  <sodipodi:namedview
     inkscape:pagecheckerboard="true"
     inkscape:document-rotation="0"
     pagecolor="#808080"
     bordercolor="#666666"
     borderopacity="1"
     objecttolerance="10"
     gridtolerance="10"
     guidetolerance="10"
     inkscape:pageopacity="0"
     inkscape:pageshadow="2"
     inkscape:window-width="1728"
     inkscape:window-height="1051"
     id="namedview34335"
     showgrid="false"
     inkscape:zoom="1.7115805"
     inkscape:cx="217.6351"
     inkscape:cy="369.54148"
     inkscape:window-x="767"
     inkscape:window-y="92"
     inkscape:window-maximized="0"
     inkscape:current-layer="layer4"
     inkscape:showpageshadow="2"
     inkscape:deskcolor="#808080" />
  <defs
     id="defs4" />
  <g
     inkscape:groupmode="layer"
     id="layer8"
     inkscape:label="icons"
     style="display:inline"
     transform="translate(-25.000002,-618)">
    <g
       inkscape:export-ydpi="96"
       inkscape:export-xdpi="96"
       inkscape:export-filename="blender_icons.png"
       id="g20495"
       style="display:inline;fill:#ffffff;enable-background:new"
       inkscape:label="DA-2">
      <rect
         style="display:inline;fill:none;stroke-width:1.627;enable-background:new"
         id="rect13319"
         width="18"
         height="18"
         x="25.000002"
         y="-636"
         transform="scale(1,-1)"
         inkscape:label="frame" />
      <path
         id="path20493"
         style="color:#000000;font-style:normal;font-variant:normal;font-weight:normal;font-stretch:normal;font-size:medium;line-height:normal;font-family:sans-serif;font-variant-ligatures:normal;font-variant-position:normal;font-variant-caps:normal;font-variant-numeric:normal;font-variant-alternates:normal;font-feature-settings:normal;text-indent:0;text-align:start;text-decoration:none;text-decoration-line:none;text-decoration-style:solid;text-decoration-color:#000000;letter-spacing:normal;word-spacing:normal;text-transform:none;writing-mode:lr-tb;direction:ltr;text-orientation:mixed;dominant-baseline:auto;baseline-shift:baseline;text-anchor:start;white-space:normal;shape-padding:0;clip-rule:nonzero;display:inline;overflow:visible;visibility:visible;opacity:1;isolation:auto;mix-blend-mode:normal;color-interpolation:sRGB;color-interpolation-filters:linearRGB;solid-color:#000000;solid-opacity:1;vector-effect:none;fill:#ffffff;fill-opacity:1;fill-rule:nonzero;stroke:none;stroke-width:2;stroke-linecap:butt;stroke-linejoin:round;stroke-miterlimit:4;stroke-dasharray:none;stroke-dashoffset:0;stroke-opacity:1;marker:none;color-rendering:auto;image-rendering:auto;shape-rendering:auto;text-rendering:auto;enable-background:accumulate"
         d="m 34,622 c -1.783333,0 -3,1.5 -3,3 h 2 c 0,-0.5 0.283333,-1 1,-1 0.716667,0 1,0.5 1,1 0,0.24702 -0.03644,0.30082 -0.117188,0.41016 -0.08074,0.10934 -0.253932,0.25966 -0.513671,0.4707 C 33.849662,626.30294 33,627.16667 33,628.5 v 0.5 h 2 v -0.5 c 0,-0.66667 0.150338,-0.67794 0.630859,-1.06836 0.240261,-0.19521 0.567072,-0.43551 0.861329,-0.83398 C 36.786444,626.19918 37,625.62798 37,625 c 0,-1.5 -1.216667,-3 -3,-3 z m -1,8.00009 h 2 v 2 H 33 Z M 34,620 c -3.86007,0 -7,3.13991 -7,7 0,3.86009 3.13993,7 7,7 3.86008,0 7,-3.13991 7,-7 0,-3.86009 -3.13992,-7 -7,-7 z m 0,1 c 3.31964,0 6,2.68035 6,6 0,3.31965 -2.68036,6 -6,6 -3.31963,0 -6,-2.68035 -6,-6 0,-3.31965 2.68037,-6 6,-6 z"
         inkscape:connector-curvature="0" />
    </g>
  </g>
</svg>
