<?xml version="1.0" encoding="UTF-8" standalone="no"?>
<svg
   inkscape:export-ydpi="96"
   inkscape:export-xdpi="96"
   inkscape:export-filename="blender_icons.png"
   style="display:inline;enable-background:new"
   inkscape:output_extension="org.inkscape.output.svg.inkscape"
   sodipodi:docname="image-missing.svg"
   version="1.0"
   inkscape:version="1.1.2 (0a00cf5339, 2022-02-04)"
   sodipodi:version="0.32"
   id="svg2"
   height="18"
   width="18"
   xmlns:inkscape="http://www.inkscape.org/namespaces/inkscape"
   xmlns:sodipodi="http://sodipodi.sourceforge.net/DTD/sodipodi-0.dtd"
   xmlns="http://www.w3.org/2000/svg"
   xmlns:svg="http://www.w3.org/2000/svg"
   xmlns:rdf="http://www.w3.org/1999/02/22-rdf-syntax-ns#"
   xmlns:cc="http://creativecommons.org/ns#"
   xmlns:dc="http://purl.org/dc/elements/1.1/">
  <metadata
     id="metadata34337">
    <rdf:RDF>
      <cc:Work
         rdf:about="">
        <dc:format>image/svg+xml</dc:format>
        <dc:type
           rdf:resource="http://purl.org/dc/dcmitype/StillImage" />
      </cc:Work>
    </rdf:RDF>
  </metadata>
  <sodipodi:namedview
     inkscape:pagecheckerboard="true"
     inkscape:document-rotation="0"
     pagecolor="#808080"
     bordercolor="#666666"
     borderopacity="1"
     objecttolerance="10"
     gridtolerance="10"
     guidetolerance="10"
     inkscape:pageopacity="0"
     inkscape:pageshadow="2"
     inkscape:window-width="1918"
     inkscape:window-height="1024"
     id="namedview34335"
     showgrid="false"
     inkscape:zoom="9.7344985"
     inkscape:cx="-3.4927326"
     inkscape:cy="1.5409114"
     inkscape:window-x="0"
     inkscape:window-y="0"
     inkscape:window-maximized="0"
     inkscape:current-layer="layer8"
     inkscape:showpageshadow="2"
     inkscape:deskcolor="#808080" />
  <defs
     id="defs4" />
  <g
     inkscape:groupmode="layer"
     id="layer8"
     inkscape:label="icons"
     style="display:inline"
     transform="translate(-237,-472.99975)">
    <g
       style="display:inline;fill:#ffffff;enable-background:new"
       id="g12888"
       transform="translate(2,22.999874)"
       inkscape:label="W-12">
      <path
         style="color:#000000;font-style:normal;font-variant:normal;font-weight:normal;font-stretch:normal;font-size:medium;line-height:normal;font-family:sans-serif;font-variant-ligatures:normal;font-variant-position:normal;font-variant-caps:normal;font-variant-numeric:normal;font-variant-alternates:normal;font-feature-settings:normal;text-indent:0;text-align:start;text-decoration:none;text-decoration-line:none;text-decoration-style:solid;text-decoration-color:#000000;letter-spacing:normal;word-spacing:normal;text-transform:none;writing-mode:lr-tb;direction:ltr;text-orientation:mixed;dominant-baseline:auto;baseline-shift:baseline;text-anchor:start;white-space:normal;shape-padding:0;clip-rule:nonzero;display:inline;overflow:visible;visibility:visible;opacity:1;isolation:auto;mix-blend-mode:normal;color-interpolation:sRGB;color-interpolation-filters:linearRGB;solid-color:#000000;solid-opacity:1;vector-effect:none;fill:#ffffff;fill-opacity:1;fill-rule:nonzero;stroke:none;stroke-width:1px;stroke-linecap:butt;stroke-linejoin:round;stroke-miterlimit:4;stroke-dasharray:none;stroke-dashoffset:0;stroke-opacity:1;color-rendering:auto;image-rendering:auto;shape-rendering:auto;text-rendering:auto;enable-background:accumulate"
         d="m 241.48438,452 c -0.12717,0.004 -0.248,0.0564 -0.3379,0.14648 l -3,3 c -0.31479,0.315 -0.0918,0.85335 0.35352,0.85352 h 3 c 0.27613,-3e-5 0.49997,-0.22387 0.5,-0.5 v -3 c 1.1e-4,-0.28235 -0.23341,-0.50879 -0.51562,-0.5 z M 243,452 v 5 h -5 v 1.5 c 2e-5,0.1326 0.0527,0.25976 0.14648,0.35352 l 2,2 c 0.19527,0.19519 0.51177,0.19519 0.70704,0 l 2.64648,-2.64649 1.64648,1.64649 c 0.19527,0.19519 0.51177,0.19519 0.70704,0 l 2.64648,-2.64649 0.64648,0.64649 1,1 c 0.315,0.31479 0.85335,0.0918 0.85352,-0.35352 v -6 c -3e-5,-0.27613 -0.22387,-0.49997 -0.5,-0.5 z m 4.49219,9 c -0.12989,0.002 -0.25387,0.0546 -0.34571,0.14648 l -2.64648,2.64649 -1.64648,-1.64649 c -0.19527,-0.19519 -0.51177,-0.19519 -0.70704,0 l -2.64648,2.64649 -1.64648,-1.64649 c -0.315,-0.31479 -0.85335,-0.0918 -0.85352,0.35352 v 2 c 3e-5,0.27613 0.22387,0.49997 0.5,0.5 h 2.00781 9.99219 c 0.27613,-3e-5 0.49997,-0.22387 0.5,-0.5 v -2 c -2e-5,-0.1326 -0.0527,-0.25976 -0.14648,-0.35352 l -1,-1 -1,-1 c -0.0957,-0.0957 -0.22603,-0.14855 -0.36133,-0.14648 z"
         id="path14234"
         inkscape:connector-curvature="0"
         sodipodi:nodetypes="ccccccccccccccccccccccccccccccccccccccccccc" />
    </g>
  </g>
</svg>
