<?xml version="1.0" encoding="UTF-8" standalone="no"?>
<!-- Created with Inkscape (http://www.inkscape.org/) -->

<svg
   width="16"
   height="16"
   viewBox="0 0 16 16"
   version="1.1"
   id="svg5"
   inkscape:version="1.4-beta (62f545ba5e, 2024-04-22)"
   xml:space="preserve"
   sodipodi:docname="fill_gradeint-radial.svg"
   xmlns:inkscape="http://www.inkscape.org/namespaces/inkscape"
   xmlns:sodipodi="http://sodipodi.sourceforge.net/DTD/sodipodi-0.dtd"
   xmlns="http://www.w3.org/2000/svg"
   xmlns:svg="http://www.w3.org/2000/svg"><sodipodi:namedview
     id="namedview7"
     pagecolor="#808080"
     bordercolor="#000000"
     borderopacity="0.25"
     inkscape:showpageshadow="false"
     inkscape:pageopacity="0.0"
     inkscape:pagecheckerboard="0"
     inkscape:deskcolor="#d1d1d1"
     inkscape:document-units="px"
     showgrid="false"
     inkscape:zoom="1.3852111"
     inkscape:cx="-219.82208"
     inkscape:cy="-180.11695"
     inkscape:window-width="1856"
     inkscape:window-height="1177"
     inkscape:window-x="1912"
     inkscape:window-y="-8"
     inkscape:window-maximized="1"
     inkscape:current-layer="layer1"><inkscape:grid
       id="grid1"
       units="px"
       originx="0"
       originy="0"
       spacingx="1"
       spacingy="1"
       empcolor="#0099e5"
       empopacity="0.30196078"
       color="#0099e5"
       opacity="0.14901961"
       empspacing="5"
       enabled="true"
       visible="false" /></sodipodi:namedview><defs
     id="defs2" /><g
     inkscape:label="Layer 1"
     inkscape:groupmode="layer"
     id="layer1"><path
       d="m 15,8 c 0,1.85652 -0.7375,3.637 -2.0503,4.9497 v 0 C 11.637,14.2625 9.85652,15 8,15 v 0 C 6.14348,15 4.36301,14.2625 3.05025,12.9497 v 0 C 1.7375,11.637 1,9.85652 1,8 V 8 C 1,6.14348 1.7375,4.36301 3.05025,3.05025 v 0 C 4.36301,1.7375 6.14348,1 8,1 v 0 c 1.85652,0 3.637,0.7375 4.9497,2.05025 v 0 C 14.2625,4.36301 15,6.14348 15,8 Z"
       style="opacity:0.05769231;fill:#ffffff;stroke-width:2px"
       id="path80" /><path
       d="m 14.4545,8 c 0,1.71185 -0.68,3.3536 -1.8904,4.5641 H 12.564 C 11.3535,13.7745 9.71183,14.4545 8,14.4545 h -7e-5 c -1.71183,0 -3.35354,-0.68 -4.56398,-1.8904 l -5e-5,-10e-5 C 2.22547,11.3535 1.54545,9.71183 1.54545,8 v -7e-5 C 1.54547,6.2881 2.2255,4.64639 3.43595,3.43595 l 5e-5,-5e-5 C 4.64645,2.22547 6.28817,1.54545 8,1.54545 h 7e-5 c 1.71183,2e-5 3.35353,0.68005 4.56403,1.8905 v 5e-5 C 13.7745,4.64645 14.4545,6.28817 14.4545,8 Z"
       style="opacity:0.08846154;fill:#ffffff;stroke-width:2px"
       id="path81" /><path
       d="m 13.9091,8 c 0,1.56719 -0.6226,3.0702 -1.7307,4.1784 l -10e-5,10e-5 C 11.0701,13.2866 9.56714,13.9091 8,13.9091 h -1.4e-4 c -1.56714,0 -3.07008,-0.6226 -4.17822,-1.7307 l -10e-5,-10e-5 C 2.71343,11.0701 2.09091,9.56714 2.09091,8 v -1.4e-4 c 4e-5,-1.56714 0.6226,-3.07008 1.73073,-4.17822 l 1e-4,-10e-5 C 4.9299,2.71343 6.43286,2.09091 8,2.09091 h 1.4e-4 c 1.56714,4e-5 3.07006,0.6226 4.17826,1.73073 l 10e-5,1e-4 C 13.2866,4.9299 13.9091,6.43286 13.9091,8 Z"
       style="opacity:0.12692308;fill:#ffffff;stroke-width:2px"
       id="path82" /><path
       d="m 13.3636,8 c 0,1.42252 -0.5651,2.7868 -1.5709,3.7927 l -2e-4,10e-5 C 10.7867,12.7986 9.42245,13.3636 8,13.3636 h -2.1e-4 c -1.42245,0 -2.78663,-0.5651 -3.79245,-1.5709 l -1.5e-4,-2e-4 C 3.2014,10.7867 2.63636,9.42245 2.63636,8 v -2.1e-4 c 6e-5,-1.42245 0.56515,-2.78663 1.57098,-3.79245 l 1.5e-4,-1.5e-4 C 5.21335,3.2014 6.57755,2.63636 8,2.63636 h 2.1e-4 c 1.42245,6e-5 2.78659,0.56515 3.79249,1.57098 l 10e-5,1.5e-4 C 12.7986,5.21335 13.3636,6.57755 13.3636,8 Z"
       style="opacity:0.2;fill:#ffffff;stroke-width:2px"
       id="path83" /><path
       d="m 12.8182,8 c 0,1.27786 -0.5076,2.5034 -1.4112,3.407 l -2e-4,2e-4 C 10.5032,12.3106 9.27777,12.8182 8,12.8182 H 7.99972 C 6.72196,12.8181 5.49655,12.3105 4.59303,11.407 l -2e-4,-2e-4 C 3.68937,10.5032 3.18182,9.27777 3.18182,8 v -2.8e-4 c 7e-5,-1.27776 0.50769,-2.50317 1.41121,-3.40669 l 2e-4,-2e-4 C 5.4968,3.68937 6.72223,3.18182 8,3.18182 h 2.8e-4 c 1.27776,7e-5 2.50322,0.50769 3.40672,1.41121 l 2e-4,2e-4 c 0.9034,0.90357 1.411,2.129 1.411,3.40677 z"
       style="opacity:0.13846154;fill:#ffffff;stroke-width:2px"
       id="path84" /><path
       d="m 12.2727,8 c 0,1.1332 -0.4501,2.22 -1.2514,3.0213 l -3e-4,2e-4 C 10.2198,11.8227 9.13308,12.2727 8,12.2727 H 7.99965 C 6.86658,12.2726 5.77993,11.8225 4.97873,11.0213 l -2.5e-4,-3e-4 C 4.17734,10.2198 3.72727,9.13308 3.72727,8 v -3.5e-4 c 1e-4,-1.13307 0.45025,-2.21972 1.25146,-3.02092 l 2.5e-4,-2.5e-4 C 5.78024,4.17734 6.86692,3.72727 8,3.72727 h 3.5e-4 c 1.13307,1e-4 2.21975,0.45025 3.02095,1.25146 l 2e-4,2.5e-4 C 11.8227,5.78024 12.2727,6.86692 12.2727,8 Z"
       style="opacity:0.22692308;fill:#ffffff;stroke-width:2px"
       id="path85" /><path
       d="m 11.7273,8 c 0,0.98853 -0.3927,1.93658 -1.0917,2.6356 l -3e-4,3e-4 C 9.93631,11.3347 8.98839,11.7273 8,11.7273 H 7.99958 C 7.01119,11.7272 6.06332,11.3345 5.36442,10.6356 l -3e-4,-3e-4 C 4.66531,9.93631 4.27273,8.98839 4.27273,8 V 7.99958 C 4.27284,7.01119 4.66552,6.06332 5.36442,5.36442 l 3e-4,-3e-4 C 6.06369,4.66531 7.01161,4.27273 8,4.27273 h 4.2e-4 c 0.98839,1.1e-4 1.93626,0.39279 2.63518,1.09169 l 3e-4,3e-4 C 11.3347,6.06369 11.7273,7.01161 11.7273,8 Z"
       style="opacity:0.25769231;fill:#ffffff;stroke-width:2px"
       id="path86" /><path
       d="m 11.1818,8 c 0,0.84387 -0.3352,1.65318 -0.9319,2.2499 l -4e-4,3e-4 C 9.65286,10.8467 8.84371,11.1818 8,11.1818 h -4.9e-4 c -0.8437,-1e-4 -1.65281,-0.3353 -2.2494,-0.9319 l -3.4e-4,-4e-4 C 5.15328,9.65286 4.81818,8.84371 4.81818,8 V 7.99951 C 4.81831,7.15581 5.15352,6.3467 5.75011,5.75011 l 3.5e-4,-3.4e-4 C 6.34714,5.15328 7.15629,4.81818 8,4.81818 h 4.9e-4 c 0.8437,1.3e-4 1.65281,0.33534 2.24941,0.93193 l 3e-4,3.5e-4 C 10.8467,6.34714 11.1818,7.15629 11.1818,8 Z"
       style="opacity:0.34230769;fill:#ffffff;stroke-width:2px"
       id="path87" /><path
       d="m 10.6364,8 c 0,0.69921 -0.2778,1.36978 -0.77221,1.86419 l -4e-4,4e-4 C 9.36942,10.3588 8.69902,10.6364 8,10.6364 h -5.7e-4 c -0.699,-2e-4 -1.36934,-0.2779 -1.86362,-0.77221 l -4e-4,-4e-4 C 5.64125,9.36942 5.36364,8.69902 5.36364,8 v -5.7e-4 c 1.5e-4,-0.699 0.27789,-1.36934 0.77217,-1.86362 l 4e-4,-4e-4 C 6.63058,5.64125 7.30098,5.36364 8,5.36364 h 5.7e-4 c 0.699,1.5e-4 1.36934,0.27789 1.86362,0.77217 l 4e-4,4e-4 C 10.3588,6.63058 10.6364,7.30098 10.6364,8 Z"
       style="opacity:0.30769231;fill:#ffffff;stroke-width:2px"
       id="path88" /><path
       d="m 10.0909,8 c 0,0.55454 -0.22028,1.08637 -0.6124,1.4785 l -4.5e-4,4.5e-4 C 9.08597,9.87079 8.55433,10.0909 8,10.0909 H 7.99936 C 7.44505,10.0907 6.91348,9.87047 6.5215,9.4785 L 6.52105,9.47805 C 6.12921,9.08597 5.90909,8.55433 5.90909,8 V 7.99936 C 5.90926,7.44505 6.12953,6.91348 6.5215,6.5215 l 4.5e-4,-4.5e-4 C 6.91403,6.12921 7.44567,5.90909 8,5.90909 h 6.4e-4 C 8.55495,5.90926 9.08652,6.12953 9.4785,6.5215 l 4.5e-4,4.5e-4 C 9.87079,6.91403 10.0909,7.44567 10.0909,8 Z"
       style="opacity:0.48461538;fill:#ffffff;stroke-width:2px"
       id="path89" /><path
       d="m 9.54545,8 c 0,0.40988 -0.16282,0.80297 -0.45265,1.0928 l -5e-4,5e-4 C 8.80252,9.38282 8.40964,9.54545 8,9.54545 H 7.99929 C 7.58967,9.54527 7.19686,9.38246 6.9072,9.0928 l -5e-4,-5e-4 C 6.61718,8.80252 6.45455,8.40964 6.45455,8 V 7.99929 C 6.45473,7.58967 6.61754,7.19686 6.9072,6.9072 l 5e-4,-5e-4 C 7.19748,6.61718 7.59036,6.45455 8,6.45455 h 7.1e-4 C 8.41033,6.45473 8.80314,6.61754 9.0928,6.9072 l 5e-4,5e-4 C 9.38282,7.19748 9.54545,7.59036 9.54545,8 Z"
       style="opacity:0.60769231;fill:#ffffff;stroke-width:2px"
       id="path90" /><path
       d="M 9,8 C 9,8.26522 8.89464,8.51957 8.70711,8.70711 l -5.5e-4,5.5e-4 C 8.51907,8.89485 8.26496,9 8,9 H 7.99922 C 7.73429,8.99979 7.48025,8.89446 7.29289,8.70711 L 7.29234,8.70656 C 7.10515,8.51907 7,8.26496 7,8 V 7.99922 C 7.00021,7.73429 7.10554,7.48025 7.29289,7.29289 l 5.5e-4,-5.5e-4 C 7.48093,7.10515 7.73504,7 8,7 h 7.8e-4 c 0.26493,2.1e-4 0.51897,0.10554 0.70633,0.29289 l 5.5e-4,5.5e-4 C 8.89485,7.48093 9,7.73504 9,8 Z"
       style="fill:#ffffff;stroke-width:2px"
       id="path91" /></g></svg>
