<?xml version="1.0" encoding="UTF-8" standalone="no"?>
<svg
   viewBox="0 0 20 20"
   xml:space="preserve"
   version="1.1"
   id="svg1"
   sodipodi:docname="computer.svg"
   inkscape:version="1.1.2 (0a00cf5339, 2022-02-04)"
   xmlns:inkscape="http://www.inkscape.org/namespaces/inkscape"
   xmlns:sodipodi="http://sodipodi.sourceforge.net/DTD/sodipodi-0.dtd"
   xmlns="http://www.w3.org/2000/svg"
   xmlns:svg="http://www.w3.org/2000/svg"><sodipodi:namedview
   id="namedview873"
   pagecolor="#505050"
   bordercolor="#ffffff"
   borderopacity="1"
   inkscape:pageshadow="0"
   inkscape:pageopacity="0"
   inkscape:pagecheckerboard="1"
   showgrid="false"
   inkscape:zoom="23.9"
   inkscape:cx="-2.7615063"
   inkscape:cy="10"
   inkscape:window-width="1920"
   inkscape:window-height="1026"
   inkscape:window-x="0"
   inkscape:window-y="0"
   inkscape:window-maximized="1"
   inkscape:current-layer="svg1" /><defs
   id="defs1" />
    
<g
   id="g84229"
   style="display:inline;enable-background:new"
   inkscape:label="T-25"
   transform="translate(-506.5,-407.50021)"><path
     inkscape:connector-curvature="0"
     d="m 512,414.00018 h 9 v 5 h -9 z m -1.5,-2 c -0.27613,3e-5 -0.49997,0.22387 -0.5,0.5 v 8 c 3e-5,0.27613 0.22387,0.49997 0.5,0.5 h 5.5 v 1 h -2.5 c -0.67616,-0.01 -0.67616,1.00956 0,1 h 6 c 0.6573,-0.009 0.6573,-0.9907 0,-1 H 517 v -1 h 5.5 c 0.27613,-3e-5 0.49997,-0.22387 0.5,-0.5 v -8 c -3e-5,-0.27613 -0.22387,-0.49997 -0.5,-0.5 z m 0.5,1 h 11 v 7 h -11 z"
     style="opacity:1;vector-effect:none;fill:#ffffff;fill-opacity:1;stroke:none;stroke-width:1;stroke-linecap:round;stroke-linejoin:round;stroke-miterlimit:4;stroke-dasharray:none;stroke-dashoffset:0;stroke-opacity:1;marker:none;paint-order:fill markers stroke"
     id="rect22324-2" /></g></svg>
